<?xml version="1.0" encoding="iso-8859-1"?>
<!-- Generator: Adobe Illustrator 14.0.0, SVG Export Plug-In . SVG Version: 6.00 Build 43363)  -->
<!DOCTYPE svg PUBLIC "-//W3C//DTD SVG 1.1//EN" "http://www.w3.org/Graphics/SVG/1.1/DTD/svg11.dtd">
<svg version="1.1" id="Layer_1" xmlns="http://www.w3.org/2000/svg" xmlns:xlink="http://www.w3.org/1999/xlink" x="0px" y="0px"
	 width="30px" height="30px" viewBox="0 0 30 30" style="enable-background:new 0 0 30 30;" xml:space="preserve">
<path d="M1,4v22h28V4H1z M27,6v8.455l-6.939,3.855C19.753,18.117,19.391,18,19,18c-0.102,0-0.198,0.016-0.296,0.029l-5.845-7.305
	C12.947,10.499,13,10.256,13,10c0-1.104-0.896-2-2-2s-2,0.896-2,2c0,0.182,0.032,0.355,0.078,0.522L3,16.6V6H27z M27,16.656V24H3
	v-4.6l7.478-7.479C10.646,11.968,10.818,12,11,12c0.102,0,0.198-0.016,0.296-0.029l5.845,7.305C17.053,19.501,17,19.744,17,20
	c0,1.104,0.896,2,2,2s2-0.896,2-2L27,16.656z"/>
</svg>
