<?xml version="1.0" encoding="iso-8859-1"?>
<!-- Generator: Adobe Illustrator 14.0.0, SVG Export Plug-In . SVG Version: 6.00 Build 43363)  -->
<!DOCTYPE svg PUBLIC "-//W3C//DTD SVG 1.1//EN" "http://www.w3.org/Graphics/SVG/1.1/DTD/svg11.dtd">
<svg version="1.1" id="Layer_1" xmlns="http://www.w3.org/2000/svg" xmlns:xlink="http://www.w3.org/1999/xlink" x="0px" y="0px"
	 width="30px" height="30px" viewBox="0 0 30 30" style="enable-background:new 0 0 30 30;" xml:space="preserve">
<path d="M24,9c-1.095,0-2.117,0.298-3,0.809V2H0v10.379C0.733,11.54,1.798,11,3,11c2.21,0,4,1.79,4,4s-1.79,4-4,4
	c-1.202,0-2.267-0.54-3-1.379V28h21v-7.809C21.883,20.702,22.905,21,24,21c3.314,0,6-2.686,6-6S27.314,9,24,9z M24,19
	c-0.707,0-1.38-0.182-1.998-0.54L19,16.724V26H2v-5.086C2.328,20.971,2.663,21,3,21c3.309,0,6-2.691,6-6S6.309,9,3,9
	C2.663,9,2.328,9.029,2,9.086V4h17v9.276l3.002-1.736C22.62,11.182,23.293,11,24,11c2.206,0,4,1.794,4,4S26.206,19,24,19z"/>
</svg>
