<?xml version="1.0" encoding="iso-8859-1"?>
<!-- Generator: Adobe Illustrator 14.0.0, SVG Export Plug-In . SVG Version: 6.00 Build 43363)  -->
<!DOCTYPE svg PUBLIC "-//W3C//DTD SVG 1.1//EN" "http://www.w3.org/Graphics/SVG/1.1/DTD/svg11.dtd">
<svg version="1.1" id="Layer_1" xmlns="http://www.w3.org/2000/svg" xmlns:xlink="http://www.w3.org/1999/xlink" x="0px" y="0px"
	 width="30px" height="30px" viewBox="0 0 30 30" style="enable-background:new 0 0 30 30;" xml:space="preserve">
<path d="M15,4C7.82,4,2,9.82,2,17c0,3.233,1.188,6.185,3.141,8.459L2,28.6L3.4,30l3.141-3.141C8.815,28.813,11.767,30,15,30
	s6.185-1.188,8.459-3.141L26.6,30l1.4-1.4l-3.141-3.141C26.813,23.185,28,20.233,28,17C28,9.82,22.18,4,15,4z M15,28
	C8.925,28,4,23.075,4,17S8.925,6,15,6s11,4.925,11,11S21.075,28,15,28z M14,16H7v2h9V8h-2V16z M24,0
	c-1.657,0-3.157,0.672-4.242,1.758l8.484,8.484C29.328,9.156,30,7.656,30,6C30,2.686,27.313,0,24,0z M27.865,7.037l-4.901-4.902
	C23.297,2.046,23.646,2,24,2c2.206,0,4,1.795,4,4C28,6.355,27.954,6.703,27.865,7.037z M6,0C2.687,0,0,2.686,0,6
	c0,1.656,0.672,3.156,1.758,4.242l8.484-8.484C9.157,0.672,7.657,0,6,0z M2,6c0-2.205,1.794-4,4-4c0.354,0,0.703,0.046,1.036,0.135
	L2.135,7.037C2.046,6.703,2,6.355,2,6z"/>
</svg>
