<?xml version="1.0" encoding="iso-8859-1"?>
<!-- Generator: Adobe Illustrator 14.0.0, SVG Export Plug-In . SVG Version: 6.00 Build 43363)  -->
<!DOCTYPE svg PUBLIC "-//W3C//DTD SVG 1.1//EN" "http://www.w3.org/Graphics/SVG/1.1/DTD/svg11.dtd">
<svg version="1.1" id="Layer_1" xmlns="http://www.w3.org/2000/svg" xmlns:xlink="http://www.w3.org/1999/xlink" x="0px" y="0px"
	 width="30px" height="30px" viewBox="0 0 30 30" style="enable-background:new 0 0 30 30;" xml:space="preserve">
<path d="M23,15v2h3.846c-0.855,5.236-5.18,7.517-10.846,9.536V12h5v-2h-5V8.858C17.722,8.412,19,6.861,19,5c0-2.209-1.791-4-4-4
	s-4,1.791-4,4c0,1.861,1.278,3.412,3,3.858V10H9v2h5v14.536c-5.666-2.02-9.99-4.3-10.846-9.536H7v-2H1c0,8.871,7.25,11.719,14,14
	c6.75-2.281,14-5.129,14-14H23z M13,5c0-1.104,0.896-2,2-2s2,0.896,2,2s-0.896,2-2,2S13,6.104,13,5z"/>
</svg>
