<?xml version="1.0" encoding="iso-8859-1"?>
<!-- Generator: Adobe Illustrator 14.0.0, SVG Export Plug-In . SVG Version: 6.00 Build 43363)  -->
<!DOCTYPE svg PUBLIC "-//W3C//DTD SVG 1.1//EN" "http://www.w3.org/Graphics/SVG/1.1/DTD/svg11.dtd">
<svg version="1.1" id="Layer_1" xmlns="http://www.w3.org/2000/svg" xmlns:xlink="http://www.w3.org/1999/xlink" x="0px" y="0px"
	 width="30px" height="30px" viewBox="0 0 30 30" style="enable-background:new 0 0 30 30;" xml:space="preserve">
<path d="M13,22c0,1.104,0.895,2,2,2s2-0.896,2-2s-0.895-2-2-2S13,20.896,13,22z M25,2H5C2.8,2,1,3.8,1,6v6c0,2.2,1.8,4,4,4h1v12h18
	V16h1c2.2,0,4-1.8,4-4V6C29,3.8,27.2,2,25,2z M22,26H8v-8.742C9.803,18.328,12.262,19,15,19s5.197-0.672,7-1.742V26z M22,14.821
	C20.663,16.032,18.1,17,15,17s-5.663-0.968-7-2.179v-3.643C8.482,10.742,9.129,10.34,9.897,10h10.205
	c0.769,0.34,1.415,0.742,1.897,1.179V14.821z M27,12c0,1.103-0.896,2-2,2h-1v-4h1V8H5v2h1v4H5c-1.104,0-2-0.897-2-2V6
	c0-1.103,0.896-2,2-2h20c1.104,0,2,0.897,2,2V12z"/>
</svg>
