<?xml version="1.0" encoding="iso-8859-1"?>
<!-- Generator: Adobe Illustrator 14.0.0, SVG Export Plug-In . SVG Version: 6.00 Build 43363)  -->
<!DOCTYPE svg PUBLIC "-//W3C//DTD SVG 1.1//EN" "http://www.w3.org/Graphics/SVG/1.1/DTD/svg11.dtd">
<svg version="1.1" id="Layer_1" xmlns="http://www.w3.org/2000/svg" xmlns:xlink="http://www.w3.org/1999/xlink" x="0px" y="0px"
	 width="30px" height="30px" viewBox="0 0 30 30" style="enable-background:new 0 0 30 30;" xml:space="preserve">
<path d="M22,24c1.104,0,2-0.896,2-2s-0.896-2-2-2s-2,0.896-2,2S20.896,24,22,24z M9,8l6,6l6-6l-1.406-1.406L16,10.188V2h-2v8.188
	l-3.594-3.594L9,8z M24,2h-6v2h4.491l3.429,12H4.08L7.509,4H12V2H6L2,16v12h26V16L24,2z M26,26H4v-8h22V26z"/>
</svg>
