<?xml version="1.0" encoding="iso-8859-1"?>
<!-- Generator: Adobe Illustrator 14.0.0, SVG Export Plug-In . SVG Version: 6.00 Build 43363)  -->
<!DOCTYPE svg PUBLIC "-//W3C//DTD SVG 1.1//EN" "http://www.w3.org/Graphics/SVG/1.1/DTD/svg11.dtd">
<svg version="1.1" id="Layer_1" xmlns="http://www.w3.org/2000/svg" xmlns:xlink="http://www.w3.org/1999/xlink" x="0px" y="0px"
	 width="30px" height="30px" viewBox="0 0 30 30" style="enable-background:new 0 0 30 30;" xml:space="preserve">
<path d="M15,0C6.716,0,0,6.716,0,15s6.716,15,15,15s15-6.716,15-15S23.284,0,15,0z M23.607,20.406l1.723-0.88l-0.91-1.781
	l-1.737,0.888C22.242,17.507,22,16.282,22,15s0.242-2.507,0.683-3.633l1.737,0.888l0.91-1.781l-1.723-0.88
	c0.532-0.823,1.177-1.565,1.921-2.199C27.076,9.535,28,12.156,28,15s-0.924,5.465-2.472,7.605
	C24.784,21.972,24.14,21.229,23.607,20.406z M4.472,7.395C5.216,8.028,5.86,8.771,6.393,9.594l-1.723,0.88l0.91,1.781l1.737-0.888
	C7.758,12.493,8,13.718,8,15s-0.242,2.507-0.683,3.633L5.58,17.745l-0.91,1.781l1.723,0.88c-0.532,0.823-1.177,1.565-1.921,2.199
	C2.924,20.465,2,17.844,2,15S2.924,9.535,4.472,7.395z M15,28c-3.621,0-6.895-1.483-9.252-3.873
	c0.948-0.805,1.766-1.752,2.427-2.811l1.839,0.938l0.91-1.781l-1.83-0.935C9.67,18.138,10,16.61,10,15s-0.33-3.138-0.906-4.539
	l1.83-0.935l-0.91-1.781L8.175,8.684C7.514,7.625,6.696,6.678,5.748,5.873C8.105,3.483,11.379,2,15,2s6.895,1.483,9.252,3.873
	c-0.948,0.805-1.766,1.752-2.427,2.811l-1.839-0.938l-0.91,1.781l1.83,0.935C20.33,11.862,20,13.39,20,15s0.33,3.138,0.906,4.539
	l-1.83,0.935l0.91,1.781l1.839-0.938c0.661,1.059,1.479,2.006,2.427,2.811C21.895,26.517,18.621,28,15,28z"/>
</svg>
