<?xml version="1.0" encoding="iso-8859-1"?>
<!-- Generator: Adobe Illustrator 14.0.0, SVG Export Plug-In . SVG Version: 6.00 Build 43363)  -->
<!DOCTYPE svg PUBLIC "-//W3C//DTD SVG 1.1//EN" "http://www.w3.org/Graphics/SVG/1.1/DTD/svg11.dtd">
<svg version="1.1" id="Layer_1" xmlns="http://www.w3.org/2000/svg" xmlns:xlink="http://www.w3.org/1999/xlink" x="0px" y="0px"
	 width="30px" height="30px" viewBox="0 0 30 30" style="enable-background:new 0 0 30 30;" xml:space="preserve">
<path d="M15,0C6.716,0,0,6.716,0,15s6.716,15,15,15s15-6.716,15-15S23.284,0,15,0z M22.063,16h5.887
	c-0.188,2.458-1.057,4.72-2.421,6.605C23.613,20.975,22.326,18.642,22.063,16z M22.063,14c0.264-2.642,1.551-4.975,3.466-6.605
	c1.364,1.886,2.233,4.147,2.421,6.605H22.063z M24.252,5.873c-2.353,1.996-3.919,4.871-4.19,8.127H16V2.051
	C19.221,2.297,22.114,3.706,24.252,5.873z M14,2.051V14H9.938c-0.271-3.256-1.838-6.131-4.19-8.127
	C7.886,3.706,10.779,2.297,14,2.051z M4.472,22.605C3.107,20.72,2.238,18.458,2.051,16h5.887
	C7.674,18.642,6.387,20.975,4.472,22.605z M2.051,14c0.188-2.458,1.057-4.72,2.421-6.605C6.387,9.025,7.674,11.358,7.938,14H2.051z
	 M5.748,24.127c2.353-1.996,3.919-4.871,4.19-8.127H14v11.949C10.779,27.703,7.886,26.294,5.748,24.127z M16,27.949V16h4.062
	c0.271,3.256,1.838,6.131,4.19,8.127C22.114,26.294,19.221,27.703,16,27.949z"/>
</svg>
