<?xml version="1.0" encoding="iso-8859-1"?>
<!-- Generator: Adobe Illustrator 14.0.0, SVG Export Plug-In . SVG Version: 6.00 Build 43363)  -->
<!DOCTYPE svg PUBLIC "-//W3C//DTD SVG 1.1//EN" "http://www.w3.org/Graphics/SVG/1.1/DTD/svg11.dtd">
<svg version="1.1" id="Layer_1" xmlns="http://www.w3.org/2000/svg" xmlns:xlink="http://www.w3.org/1999/xlink" x="0px" y="0px"
	 width="30px" height="30px" viewBox="0 0 30 30" style="enable-background:new 0 0 30 30;" xml:space="preserve">
<path d="M22,12h-9l1-8L4,18h9l-1,8L22,12z M7.886,16l3.149-4.408L10.734,14h7.379l-3.148,4.408L15.266,16H7.886z M2,8h6.685l1.429-2
	H0v18h10.234l0.25-2H2V8z M26,11V6H15.766l-0.25,2H24v14h-6.686l-1.428,2H26v-5c2.209,0,4-1.791,4-4S28.209,11,26,11z M26,17v-4
	c1.104,0,2,0.896,2,2S27.104,17,26,17z"/>
</svg>
