<?xml version="1.0" encoding="iso-8859-1"?>
<!-- Generator: Adobe Illustrator 14.0.0, SVG Export Plug-In . SVG Version: 6.00 Build 43363)  -->
<!DOCTYPE svg PUBLIC "-//W3C//DTD SVG 1.1//EN" "http://www.w3.org/Graphics/SVG/1.1/DTD/svg11.dtd">
<svg version="1.1" id="Layer_1" xmlns="http://www.w3.org/2000/svg" xmlns:xlink="http://www.w3.org/1999/xlink" x="0px" y="0px"
	 width="30px" height="30px" viewBox="0 0 30 30" style="enable-background:new 0 0 30 30;" xml:space="preserve">
<path d="M1,2v8h2v18h24V10h2V2H1z M25,26H5V10h20V26z M27,8H3V4h24V8z M12,18h6c1.656,0,3-1.344,3-3c0-1.657-1.344-3-3-3h-6
	c-1.657,0-3,1.343-3,3C9,16.656,10.343,18,12,18z M12,14h6c0.551,0,1,0.449,1,1c0,0.551-0.449,1-1,1h-6c-0.551,0-1-0.449-1-1
	C11,14.449,11.449,14,12,14z"/>
</svg>
