<?xml version="1.0" encoding="iso-8859-1"?>
<!-- Generator: Adobe Illustrator 14.0.0, SVG Export Plug-In . SVG Version: 6.00 Build 43363)  -->
<!DOCTYPE svg PUBLIC "-//W3C//DTD SVG 1.1//EN" "http://www.w3.org/Graphics/SVG/1.1/DTD/svg11.dtd">
<svg version="1.1" id="Layer_1" xmlns="http://www.w3.org/2000/svg" xmlns:xlink="http://www.w3.org/1999/xlink" x="0px" y="0px"
	 width="30px" height="30px" viewBox="0 0 30 30" style="enable-background:new 0 0 30 30;" xml:space="preserve">
<path d="M15,1C7.268,1,1,7.268,1,15c0,7.732,6.268,14,14,14c7.732,0,14-6.268,14-14C29,7.268,22.732,1,15,1z M22.752,5.848L15,13.6
	L7.249,5.848C9.34,4.075,12.043,3,15,3S20.66,4.075,22.752,5.848z M3,15c0-2.957,1.075-5.66,2.848-7.752L13.6,15l-7.751,7.752
	C4.075,20.66,3,17.957,3,15z M7.249,24.152L15,16.4l7.752,7.752C20.66,25.926,17.957,27,15,27S9.34,25.926,7.249,24.152z
	 M24.152,22.752L16.4,15l7.752-7.752C25.926,9.34,27,12.043,27,15S25.926,20.66,24.152,22.752z"/>
</svg>
