<?xml version="1.0" encoding="iso-8859-1"?>
<!-- Generator: Adobe Illustrator 14.0.0, SVG Export Plug-In . SVG Version: 6.00 Build 43363)  -->
<!DOCTYPE svg PUBLIC "-//W3C//DTD SVG 1.1//EN" "http://www.w3.org/Graphics/SVG/1.1/DTD/svg11.dtd">
<svg version="1.1" id="Layer_1" xmlns="http://www.w3.org/2000/svg" xmlns:xlink="http://www.w3.org/1999/xlink" x="0px" y="0px"
	 width="30px" height="30px" viewBox="0 0 30 30" style="enable-background:new 0 0 30 30;" xml:space="preserve">
<path d="M25,17h-8v2h8V17z M25,21h-8v2h8V21z M25,3H5C2.8,3,1,4.8,1,7v16c0,2.2,1.8,4,4,4h20c2.2,0,4-1.8,4-4V7C29,4.8,27.2,3,25,3z
	 M27,23c0,1.104-0.896,2-2,2H5c-1.104,0-2-0.896-2-2V13h24V23z M27,11H3V9h24V11z M3,7c0-1.104,0.896-2,2-2h20c1.104,0,2,0.896,2,2
	H3z"/>
</svg>
