<?xml version="1.0" encoding="iso-8859-1"?>
<!-- Generator: Adobe Illustrator 14.0.0, SVG Export Plug-In . SVG Version: 6.00 Build 43363)  -->
<!DOCTYPE svg PUBLIC "-//W3C//DTD SVG 1.1//EN" "http://www.w3.org/Graphics/SVG/1.1/DTD/svg11.dtd">
<svg version="1.1" id="Layer_1" xmlns="http://www.w3.org/2000/svg" xmlns:xlink="http://www.w3.org/1999/xlink" x="0px" y="0px"
	 width="30px" height="30px" viewBox="0 0 30 30" style="enable-background:new 0 0 30 30;" xml:space="preserve">
<path d="M25,15l4-10H7V1H1v2h4v16h20v-2H7v-2H25z M7,7h19.047l-2.4,6H7V7z M9,21c-2.209,0-4,1.791-4,4s1.791,4,4,4s4-1.791,4-4
	S11.209,21,9,21z M9,27c-1.104,0-2-0.896-2-2s0.896-2,2-2c1.105,0,2,0.896,2,2S10.105,27,9,27z M21,21c-2.209,0-4,1.791-4,4
	s1.791,4,4,4s4-1.791,4-4S23.209,21,21,21z M21,27c-1.104,0-2-0.896-2-2s0.896-2,2-2c1.105,0,2,0.896,2,2S22.105,27,21,27z"/>
</svg>
