<?xml version="1.0" encoding="iso-8859-1"?>
<!-- Generator: Adobe Illustrator 14.0.0, SVG Export Plug-In . SVG Version: 6.00 Build 43363)  -->
<!DOCTYPE svg PUBLIC "-//W3C//DTD SVG 1.1//EN" "http://www.w3.org/Graphics/SVG/1.1/DTD/svg11.dtd">
<svg version="1.1" id="Layer_1" xmlns="http://www.w3.org/2000/svg" xmlns:xlink="http://www.w3.org/1999/xlink" x="0px" y="0px"
	 width="30px" height="30px" viewBox="0 0 30 30" style="enable-background:new 0 0 30 30;" xml:space="preserve">
<path d="M15,1C7.268,1,1,7.268,1,15c0,7.732,6.268,14,14,14V15h14C29,7.268,22.732,1,15,1z M13,13v13.834
	C7.332,25.879,3,20.936,3,15C3,8.383,8.383,3,15,3c5.936,0,10.879,4.332,11.834,10H13z M17,28.841
	C23.127,27.962,27.962,23.127,28.841,17H17V28.841z M19,19h7.297c-1.207,3.389-3.908,6.09-7.297,7.297V19z"/>
</svg>
