<?xml version="1.0" encoding="iso-8859-1"?>
<!-- Generator: Adobe Illustrator 14.0.0, SVG Export Plug-In . SVG Version: 6.00 Build 43363)  -->
<!DOCTYPE svg PUBLIC "-//W3C//DTD SVG 1.1//EN" "http://www.w3.org/Graphics/SVG/1.1/DTD/svg11.dtd">
<svg version="1.1" id="Layer_1" xmlns="http://www.w3.org/2000/svg" xmlns:xlink="http://www.w3.org/1999/xlink" x="0px" y="0px"
	 width="30px" height="30px" viewBox="0 0 30 30" style="enable-background:new 0 0 30 30;" xml:space="preserve">
<path d="M15,1C7.268,1,1,6.373,1,13c0,4.02,2.314,7.568,5.854,9.746C6.577,24.859,5.923,27.396,5,29
	c2.584,0,5.941-2.055,8.135-4.119C13.746,24.951,14.366,25,15,25c7.732,0,14-5.373,14-12S22.732,1,15,1z M15,23
	c-0.781,0-1.859-0.125-2.547-0.219c-0.969,0.938-1.891,1.875-4.172,3.156C8.547,25.016,8.891,22.797,9,21.734
	C7.078,20.672,3,17.938,3,13C3,7.486,8.383,3,15,3s12,4.486,12,10S21.625,23,15,23z M16,7h-2v5H9v2h5v5h2v-5h5v-2h-5V7z"/>
</svg>
