<?xml version="1.0" encoding="iso-8859-1"?>
<!-- Generator: Adobe Illustrator 14.0.0, SVG Export Plug-In . SVG Version: 6.00 Build 43363)  -->
<!DOCTYPE svg PUBLIC "-//W3C//DTD SVG 1.1//EN" "http://www.w3.org/Graphics/SVG/1.1/DTD/svg11.dtd">
<svg version="1.1" id="Layer_1" xmlns="http://www.w3.org/2000/svg" xmlns:xlink="http://www.w3.org/1999/xlink" x="0px" y="0px"
	 width="30px" height="30px" viewBox="0 0 30 30" style="enable-background:new 0 0 30 30;" xml:space="preserve">
<path d="M25,1H5C2.8,1,1,2.8,1,5v14c0,2.2,1.8,4,4,4h2v6l10-6h8c2.2,0,4-1.8,4-4V5C29,2.8,27.2,1,25,1z M27,19c0,1.104-0.896,2-2,2
	h-8.555L9,25.468V21H5c-1.104,0-2-0.896-2-2V5c0-1.104,0.896-2,2-2h20c1.104,0,2,0.896,2,2V19z M17.156,9.672L15,5l-2.156,4.672
	L8,10.594l3.531,3.281L10.344,19L15,16.438L19.656,19l-1.188-5.125L22,10.594L17.156,9.672z M16.697,15.089L15,14.154l-1.697,0.935
	l0.438-1.891l-1.484-1.379l1.971-0.375L15,9.772l0.771,1.672l1.971,0.375l-1.483,1.379L16.697,15.089z"/>
</svg>
