<?xml version="1.0" encoding="iso-8859-1"?>
<!-- Generator: Adobe Illustrator 14.0.0, SVG Export Plug-In . SVG Version: 6.00 Build 43363)  -->
<!DOCTYPE svg PUBLIC "-//W3C//DTD SVG 1.1//EN" "http://www.w3.org/Graphics/SVG/1.1/DTD/svg11.dtd">
<svg version="1.1" id="Layer_1" xmlns="http://www.w3.org/2000/svg" xmlns:xlink="http://www.w3.org/1999/xlink" x="0px" y="0px"
	 width="30px" height="30px" viewBox="0 0 30 30" style="enable-background:new 0 0 30 30;" xml:space="preserve">
<path d="M15,0C6.716,0,0,6.716,0,15s6.716,15,15,15s15-6.716,15-15S23.284,0,15,0z M15,28C7.82,28,2,22.18,2,15S7.82,2,15,2
	s13,5.82,13,13S22.18,28,15,28z M20.6,8L15,13.6L9.4,8L8,9.4l5.6,5.6L8,20.6L9.4,22l5.6-5.6l5.6,5.6l1.4-1.4L16.4,15L22,9.4L20.6,8z
	"/>
</svg>
