<?xml version="1.0" encoding="iso-8859-1"?>
<!-- Generator: Adobe Illustrator 14.0.0, SVG Export Plug-In . SVG Version: 6.00 Build 43363)  -->
<!DOCTYPE svg PUBLIC "-//W3C//DTD SVG 1.1//EN" "http://www.w3.org/Graphics/SVG/1.1/DTD/svg11.dtd">
<svg version="1.1" id="Layer_1" xmlns="http://www.w3.org/2000/svg" xmlns:xlink="http://www.w3.org/1999/xlink" x="0px" y="0px"
	 width="30px" height="30px" viewBox="0 0 30 30" style="enable-background:new 0 0 30 30;" xml:space="preserve">
<path d="M6,1H4v4h2V1z M12,1h-2v4h2V1z M18,1h-2v4h2V1z M26,11h-4V7H0v18c0,2.2,1.8,4,4,4h14c2.2,0,4-1.8,4-4h4c2.2,0,4-1.8,4-4v-6
	C30,12.8,28.2,11,26,11z M20,25c0,1.104-0.897,2-2,2H4c-1.103,0-2-0.896-2-2V9h18V25z M22,17h2v2h-2V17z M28,21c0,1.104-0.897,2-2,2
	h-4v-2h4v-6h-4v-2h4c1.103,0,2,0.897,2,2V21z"/>
</svg>
