<?xml version="1.0" encoding="iso-8859-1"?>
<!-- Generator: Adobe Illustrator 14.0.0, SVG Export Plug-In . SVG Version: 6.00 Build 43363)  -->
<!DOCTYPE svg PUBLIC "-//W3C//DTD SVG 1.1//EN" "http://www.w3.org/Graphics/SVG/1.1/DTD/svg11.dtd">
<svg version="1.1" id="Layer_1" xmlns="http://www.w3.org/2000/svg" xmlns:xlink="http://www.w3.org/1999/xlink" x="0px" y="0px"
	 width="30px" height="30px" viewBox="0 0 30 30" style="enable-background:new 0 0 30 30;" xml:space="preserve">
<path d="M15,1C7.82,1,2,3.238,2,6v18c0,2.762,5.82,5,13,5s13-2.238,13-5V6C28,3.238,22.18,1,15,1z M15,3c6.85,0,10.868,2.128,11,3
	c-0.132,0.864-4.15,3-11,3S4.132,6.872,4,6C4.132,5.136,8.15,3,15,3z M15,27c-6.85,0-10.868-2.128-11-3v-6.344
	C6.301,19.063,10.361,20,15,20s8.699-0.938,11-2.344V24C25.868,24.864,21.85,27,15,27z M15,18c-6.85,0-10.868-2.128-11-3V8.656
	C6.301,10.063,10.361,11,15,11s8.699-0.938,11-2.344V15C25.868,15.864,21.85,18,15,18z"/>
</svg>
