<?xml version="1.0" encoding="iso-8859-1"?>
<!-- Generator: Adobe Illustrator 14.0.0, SVG Export Plug-In . SVG Version: 6.00 Build 43363)  -->
<!DOCTYPE svg PUBLIC "-//W3C//DTD SVG 1.1//EN" "http://www.w3.org/Graphics/SVG/1.1/DTD/svg11.dtd">
<svg version="1.1" id="Layer_1" xmlns="http://www.w3.org/2000/svg" xmlns:xlink="http://www.w3.org/1999/xlink" x="0px" y="0px"
	 width="30px" height="30px" viewBox="0 0 30 30" style="enable-background:new 0 0 30 30;" xml:space="preserve">
<path d="M14,25h2V15h-2c-0.081,0.164-0.791,0.698-2,0.909v2.031c0.743-0.09,1.416-0.288,2-0.553V25z M25,4c0-1.657-1.343-3-3-3
	s-3,1.343-3,3h-8c0-1.657-1.343-3-3-3S5,2.343,5,4H1v25h28V4H25z M21,4c0-0.551,0.448-1,1-1s1,0.449,1,1v2c0,0.551-0.448,1-1,1
	s-1-0.449-1-1V4z M7,4c0-0.551,0.448-1,1-1s1,0.449,1,1v2c0,0.551-0.448,1-1,1S7,6.551,7,6V4z M27,27H3V13h24V27z M27,11H3V6h2
	c0,1.657,1.343,3,3,3s3-1.343,3-3h8c0,1.657,1.343,3,3,3s3-1.343,3-3h2V11z"/>
</svg>
