<?xml version="1.0" encoding="iso-8859-1"?>
<!-- Generator: Adobe Illustrator 14.0.0, SVG Export Plug-In . SVG Version: 6.00 Build 43363)  -->
<!DOCTYPE svg PUBLIC "-//W3C//DTD SVG 1.1//EN" "http://www.w3.org/Graphics/SVG/1.1/DTD/svg11.dtd">
<svg version="1.1" id="Layer_1" xmlns="http://www.w3.org/2000/svg" xmlns:xlink="http://www.w3.org/1999/xlink" x="0px" y="0px"
	 width="30px" height="30px" viewBox="0 0 30 30" style="enable-background:new 0 0 30 30;" xml:space="preserve">
<path d="M5,1C2.791,1,1,2.791,1,5s1.791,4,4,4s4-1.791,4-4S7.209,1,5,1z M5,7C3.896,7,3,6.104,3,5s0.896-2,2-2s2,0.896,2,2
	S6.104,7,5,7z M15,1c-2.209,0-4,1.791-4,4s1.791,4,4,4s4-1.791,4-4S17.209,1,15,1z M15,7c-1.104,0-2-0.896-2-2s0.896-2,2-2
	s2,0.896,2,2S16.104,7,15,7z M25,9c2.209,0,4-1.791,4-4s-1.791-4-4-4s-4,1.791-4,4S22.791,9,25,9z M25,3c1.104,0,2,0.896,2,2
	s-0.896,2-2,2s-2-0.896-2-2S23.896,3,25,3z M5,11c-2.209,0-4,1.791-4,4s1.791,4,4,4s4-1.791,4-4S7.209,11,5,11z M5,17
	c-1.104,0-2-0.896-2-2s0.896-2,2-2s2,0.896,2,2S6.104,17,5,17z M15,11c-2.209,0-4,1.791-4,4s1.791,4,4,4s4-1.791,4-4
	S17.209,11,15,11z M15,17c-1.104,0-2-0.896-2-2s0.896-2,2-2s2,0.896,2,2S16.104,17,15,17z M25,11c-2.209,0-4,1.791-4,4s1.791,4,4,4
	s4-1.791,4-4S27.209,11,25,11z M25,17c-1.104,0-2-0.896-2-2s0.896-2,2-2s2,0.896,2,2S26.104,17,25,17z M5,21c-2.209,0-4,1.791-4,4
	s1.791,4,4,4s4-1.791,4-4S7.209,21,5,21z M5,27c-1.104,0-2-0.896-2-2s0.896-2,2-2s2,0.896,2,2S6.104,27,5,27z M15,21
	c-2.209,0-4,1.791-4,4s1.791,4,4,4s4-1.791,4-4S17.209,21,15,21z M15,27c-1.104,0-2-0.896-2-2s0.896-2,2-2s2,0.896,2,2
	S16.104,27,15,27z M25,21c-2.209,0-4,1.791-4,4s1.791,4,4,4s4-1.791,4-4S27.209,21,25,21z M25,27c-1.104,0-2-0.896-2-2s0.896-2,2-2
	s2,0.896,2,2S26.104,27,25,27z"/>
</svg>
