<?xml version="1.0" encoding="iso-8859-1"?>
<!-- Generator: Adobe Illustrator 14.0.0, SVG Export Plug-In . SVG Version: 6.00 Build 43363)  -->
<!DOCTYPE svg PUBLIC "-//W3C//DTD SVG 1.1//EN" "http://www.w3.org/Graphics/SVG/1.1/DTD/svg11.dtd">
<svg version="1.1" id="Layer_1" xmlns="http://www.w3.org/2000/svg" xmlns:xlink="http://www.w3.org/1999/xlink" x="0px" y="0px"
	 width="30px" height="30px" viewBox="0 0 30 30" style="enable-background:new 0 0 30 30;" xml:space="preserve">
<path d="M18,11h6l6-4l-6-4h-6V0h-6v3H4v8h8v2H6l-6,4l6,4h6v9h6v-9h8v-8h-8V11z M14,2h2v1h-2V2z M6,5h17.395l3,2l-3,2H6V5z M14,11h2
	v2h-2V11z M16,28h-2v-7h2V28z M24,19H6.605l-3-2l3-2H24V19z"/>
</svg>
