<?xml version="1.0" encoding="iso-8859-1"?>
<!-- Generator: Adobe Illustrator 14.0.0, SVG Export Plug-In . SVG Version: 6.00 Build 43363)  -->
<!DOCTYPE svg PUBLIC "-//W3C//DTD SVG 1.1//EN" "http://www.w3.org/Graphics/SVG/1.1/DTD/svg11.dtd">
<svg version="1.1" id="Layer_1" xmlns="http://www.w3.org/2000/svg" xmlns:xlink="http://www.w3.org/1999/xlink" x="0px" y="0px"
	 width="30px" height="30px" viewBox="0 0 30 30" style="enable-background:new 0 0 30 30;" xml:space="preserve">
<path d="M10,19H8c0,3.866,3.134,7,7,7v-2C12.239,24,10,21.762,10,19z M15,0C11.75,7.875,4,11.333,4,19c0,6.075,4.925,11,11,11
	s11-4.925,11-11C26,11.333,18.25,7.875,15,0z M15,28c-4.962,0-9-4.037-9-9c0-5.797,6.156-9.828,9-14.734
	c2.844,4.906,9,8.938,9,14.734C24,23.963,19.963,28,15,28z"/>
</svg>
