<?xml version="1.0" encoding="iso-8859-1"?>
<!-- Generator: Adobe Illustrator 14.0.0, SVG Export Plug-In . SVG Version: 6.00 Build 43363)  -->
<!DOCTYPE svg PUBLIC "-//W3C//DTD SVG 1.1//EN" "http://www.w3.org/Graphics/SVG/1.1/DTD/svg11.dtd">
<svg version="1.1" id="Layer_1" xmlns="http://www.w3.org/2000/svg" xmlns:xlink="http://www.w3.org/1999/xlink" x="0px" y="0px"
	 width="30px" height="30px" viewBox="0 0 30 30" style="enable-background:new 0 0 30 30;" xml:space="preserve">
<path d="M16,1H4v28h22V11L16,1z M16,3.828L23.172,11H16V3.828z M24,27H6V3h8v10h10V27z M10,19c0,2.209,1.791,4,4,4
	c0.744,0,1.433-0.217,2.029-0.57L18.6,25l1.4-1.4l-2.57-2.57C17.783,20.433,18,19.744,18,19c0-2.209-1.791-4-4-4S10,16.791,10,19z
	 M16,19c0,1.104-0.896,2-2,2s-2-0.896-2-2s0.896-2,2-2S16,17.896,16,19z"/>
</svg>
