<?xml version="1.0" encoding="iso-8859-1"?>
<!-- Generator: Adobe Illustrator 14.0.0, SVG Export Plug-In . SVG Version: 6.00 Build 43363)  -->
<!DOCTYPE svg PUBLIC "-//W3C//DTD SVG 1.1//EN" "http://www.w3.org/Graphics/SVG/1.1/DTD/svg11.dtd">
<svg version="1.1" id="Layer_1" xmlns="http://www.w3.org/2000/svg" xmlns:xlink="http://www.w3.org/1999/xlink" x="0px" y="0px"
	 width="30px" height="30px" viewBox="0 0 30 30" style="enable-background:new 0 0 30 30;" xml:space="preserve">
<path d="M10,1C5.167,1,4.459,2.063,4,3v26h2V15.416C6.86,15.163,8.113,15,10,15c5.459,0,10.438,2.333,16,0V1
	C20.438,3.333,15.459,1,10,1z M24,13.588C19.281,14.844,15.094,13,10,13c-1.621,0-2.932,0.105-4,0.345V3.615
	C6.338,3.339,7.248,3,10,3c3.834,0,9.844,1.75,14,0.703V13.588z"/>
</svg>
