<?xml version="1.0" encoding="iso-8859-1"?>
<!-- Generator: Adobe Illustrator 14.0.0, SVG Export Plug-In . SVG Version: 6.00 Build 43363)  -->
<!DOCTYPE svg PUBLIC "-//W3C//DTD SVG 1.1//EN" "http://www.w3.org/Graphics/SVG/1.1/DTD/svg11.dtd">
<svg version="1.1" id="Layer_1" xmlns="http://www.w3.org/2000/svg" xmlns:xlink="http://www.w3.org/1999/xlink" x="0px" y="0px"
	 width="30px" height="30px" viewBox="0 0 30 30" style="enable-background:new 0 0 30 30;" xml:space="preserve">
<path d="M15,0C6.716,0,0,6.716,0,15s6.716,15,15,15s15-6.716,15-15S23.284,0,15,0z M14,6.967c-1.201-0.06-2.359-0.227-3.455-0.483
	C11.479,4.258,12.731,2.752,14,2.22V6.967z M14,8.966V14H9.025c0.077-2.085,0.386-3.978,0.856-5.612
	C11.182,8.704,12.562,8.902,14,8.966z M14,16v5.034c-1.438,0.063-2.818,0.262-4.118,0.577C9.411,19.978,9.103,18.085,9.025,16H14z
	 M14,23.033v4.747c-1.269-0.532-2.521-2.038-3.455-4.265C11.641,23.26,12.799,23.093,14,23.033z M16,23.033
	c1.201,0.06,2.359,0.227,3.455,0.482c-0.935,2.227-2.187,3.732-3.455,4.265V23.033z M16,21.034V16h4.975
	c-0.077,2.085-0.386,3.978-0.856,5.611C18.818,21.296,17.438,21.098,16,21.034z M16,14V8.966c1.438-0.063,2.818-0.262,4.118-0.578
	c0.471,1.634,0.779,3.527,0.856,5.612H16z M16,6.967V2.22c1.269,0.533,2.521,2.039,3.455,4.264C18.359,6.74,17.201,6.907,16,6.967z
	 M19.709,2.893c1.342,0.522,2.577,1.254,3.66,2.166c-0.623,0.329-1.296,0.62-2.007,0.873C20.892,4.775,20.336,3.752,19.709,2.893z
	 M8.638,5.932C7.927,5.679,7.254,5.388,6.631,5.059c1.083-0.912,2.318-1.644,3.66-2.166C9.664,3.752,9.108,4.775,8.638,5.932z
	 M7.973,7.827C7.434,9.681,7.105,11.776,7.027,14H2.051c0.217-2.846,1.346-5.433,3.102-7.472C6.013,7.029,6.957,7.466,7.973,7.827z
	 M7.027,16c0.078,2.224,0.406,4.318,0.945,6.173c-1.016,0.361-1.96,0.798-2.82,1.299C3.396,21.433,2.268,18.846,2.051,16H7.027z
	 M8.638,24.068c0.471,1.156,1.026,2.18,1.653,3.039c-1.342-0.523-2.577-1.254-3.66-2.166C7.254,24.612,7.927,24.321,8.638,24.068z
	 M21.362,24.068c0.711,0.253,1.384,0.544,2.007,0.873c-1.083,0.912-2.318,1.643-3.66,2.166
	C20.336,26.248,20.892,25.225,21.362,24.068z M22.027,22.173c0.539-1.854,0.867-3.949,0.945-6.173h4.977
	c-0.217,2.846-1.346,5.433-3.102,7.472C23.987,22.971,23.043,22.534,22.027,22.173z M22.973,14
	c-0.078-2.224-0.406-4.319-0.945-6.173c1.016-0.361,1.96-0.798,2.82-1.299c1.756,2.039,2.885,4.625,3.102,7.472H22.973z"/>
</svg>
