<?xml version="1.0" encoding="iso-8859-1"?>
<!-- Generator: Adobe Illustrator 14.0.0, SVG Export Plug-In . SVG Version: 6.00 Build 43363)  -->
<!DOCTYPE svg PUBLIC "-//W3C//DTD SVG 1.1//EN" "http://www.w3.org/Graphics/SVG/1.1/DTD/svg11.dtd">
<svg version="1.1" id="Layer_1" xmlns="http://www.w3.org/2000/svg" xmlns:xlink="http://www.w3.org/1999/xlink" x="0px" y="0px"
	 width="30px" height="30px" viewBox="0 0 30 30" style="enable-background:new 0 0 30 30;" xml:space="preserve">
<path d="M29.183,10.148c-0.306-0.893-0.688-1.746-1.148-2.555C28.634,6.896,29,5.992,29,5c0-2.209-1.791-4-4-4
	c-0.992,0-1.896,0.366-2.595,0.966c-0.808-0.46-1.661-0.843-2.554-1.148L20,0H10l0.148,0.817C9.256,1.123,8.402,1.506,7.595,1.966
	C6.896,1.366,5.992,1,5,1C2.791,1,1,2.791,1,5c0,0.992,0.366,1.896,0.966,2.594c-0.46,0.809-0.843,1.662-1.148,2.555L0,10v10
	l0.817-0.148c0.306,0.893,0.688,1.746,1.148,2.555C1.366,23.104,1,24.008,1,25c0,2.209,1.791,4,4,4c0.992,0,1.896-0.366,2.595-0.966
	c0.808,0.46,1.661,0.843,2.554,1.148L10,30h10l-0.148-0.817c0.893-0.306,1.746-0.688,2.554-1.148C23.104,28.634,24.008,29,25,29
	c2.209,0,4-1.791,4-4c0-0.992-0.366-1.896-0.966-2.594c0.46-0.809,0.843-1.662,1.148-2.555L30,20V10L29.183,10.148z M12.396,28
	l1.272-7h2.662l1.272,7H12.396z M17.972,19h-5.943c-0.392-0.291-0.737-0.637-1.028-1.028v-5.944
	c0.291-0.391,0.637-0.736,1.027-1.027h5.945c0.391,0.291,0.736,0.637,1.027,1.027v5.944C18.709,18.363,18.363,18.709,17.972,19z
	 M2,17.604v-5.207l7,1.272v2.662L2,17.604z M17.604,2l-1.272,7h-2.662l-1.272-7H17.604z M21,16.331v-2.662l7-1.272v5.207L21,16.331z
	 M25,3c1.104,0,2,0.896,2,2c0,0.283-0.069,0.547-0.177,0.791c-0.762-0.977-1.639-1.854-2.614-2.614C24.453,3.07,24.717,3,25,3z
	 M27.165,10.516l-6.056,1.101c-0.636-1.146-1.58-2.09-2.726-2.726l1.101-6.055C23.042,4.148,25.852,6.957,27.165,10.516z M3,5
	c0-1.104,0.896-2,2-2c0.283,0,0.547,0.07,0.791,0.177C4.815,3.938,3.938,4.814,3.177,5.791C3.069,5.547,3,5.283,3,5z M10.516,2.836
	l1.101,6.055c-1.146,0.636-2.09,1.58-2.726,2.726l-6.056-1.101C4.147,6.957,6.957,4.148,10.516,2.836z M5,27c-1.104,0-2-0.896-2-2
	c0-0.283,0.069-0.547,0.177-0.791c0.762,0.977,1.639,1.854,2.614,2.614C5.547,26.93,5.283,27,5,27z M2.836,19.484l6.055-1.101
	c0.636,1.146,1.58,2.09,2.726,2.726l-1.101,6.055C6.957,25.852,4.148,23.043,2.836,19.484z M27,25c0,1.104-0.896,2-2,2
	c-0.283,0-0.547-0.07-0.791-0.177c0.976-0.761,1.853-1.638,2.614-2.614C26.931,24.453,27,24.717,27,25z M19.484,27.164l-1.101-6.055
	c1.146-0.636,2.09-1.58,2.726-2.726l6.055,1.101C25.852,23.043,23.043,25.852,19.484,27.164z"/>
</svg>
