<?xml version="1.0" encoding="iso-8859-1"?>
<!-- Generator: Adobe Illustrator 14.0.0, SVG Export Plug-In . SVG Version: 6.00 Build 43363)  -->
<!DOCTYPE svg PUBLIC "-//W3C//DTD SVG 1.1//EN" "http://www.w3.org/Graphics/SVG/1.1/DTD/svg11.dtd">
<svg version="1.1" id="Layer_1" xmlns="http://www.w3.org/2000/svg" xmlns:xlink="http://www.w3.org/1999/xlink" x="0px" y="0px"
	 width="30px" height="30px" viewBox="0 0 30 30" style="enable-background:new 0 0 30 30;" xml:space="preserve">
<path d="M9,10l6,6l6-6l-1.406-1.406L16,12.188V2h-2v10.188l-3.594-3.594L9,10z M24,2h-6v2h4.491l3.429,12H19c0,2.209-1.791,4-4,4
	s-4-1.791-4-4H4.08L7.509,4H12V2H6L2,16v12h26V16L24,2z M26,26H4v-8h5.349c0.825,2.328,3.04,4,5.651,4s4.826-1.672,5.651-4H26V26z"
	/>
</svg>
