<?xml version="1.0" encoding="iso-8859-1"?>
<!-- Generator: Adobe Illustrator 14.0.0, SVG Export Plug-In . SVG Version: 6.00 Build 43363)  -->
<!DOCTYPE svg PUBLIC "-//W3C//DTD SVG 1.1//EN" "http://www.w3.org/Graphics/SVG/1.1/DTD/svg11.dtd">
<svg version="1.1" id="Layer_1" xmlns="http://www.w3.org/2000/svg" xmlns:xlink="http://www.w3.org/1999/xlink" x="0px" y="0px"
	 width="30px" height="30px" viewBox="0 0 30 30" style="enable-background:new 0 0 30 30;" xml:space="preserve">
<path d="M22,7c-4.419,0-8,3.581-8,8c0,3.313-2.687,6-6,6s-6-2.687-6-6s2.687-6,6-6c1.916,0,3.619,0.902,4.718,2.301
	c0.268-0.668,0.604-1.3,1.003-1.889C12.268,7.926,10.243,7,8,7c-4.419,0-8,3.581-8,8s3.581,8,8,8s8-3.581,8-8c0-3.313,2.687-6,6-6
	s6,2.687,6,6s-2.687,6-6,6c-1.916,0-3.619-0.902-4.718-2.301c-0.268,0.668-0.607,1.297-1.006,1.885C17.729,22.073,19.755,23,22,23
	c4.419,0,8-3.581,8-8S26.419,7,22,7z"/>
</svg>
