<?xml version="1.0" encoding="iso-8859-1"?>
<!-- Generator: Adobe Illustrator 14.0.0, SVG Export Plug-In . SVG Version: 6.00 Build 43363)  -->
<!DOCTYPE svg PUBLIC "-//W3C//DTD SVG 1.1//EN" "http://www.w3.org/Graphics/SVG/1.1/DTD/svg11.dtd">
<svg version="1.1" id="Layer_1" xmlns="http://www.w3.org/2000/svg" xmlns:xlink="http://www.w3.org/1999/xlink" x="0px" y="0px"
	 width="30px" height="30px" viewBox="0 0 30 30" style="enable-background:new 0 0 30 30;" xml:space="preserve">
<path d="M10,26h10v-2H10V26z M12,30h6v-2h-6V30z M15,0C8.925,0,4,4.925,4,11c0,6.047,4.438,8.5,6,11h10c1.563-2.5,6-4.953,6-11
	C26,4.925,21.075,0,15,0z M18.984,20h-7.969C9.313,17.781,6,15.75,6,11c0-4.963,4.037-9,9-9s9,4.037,9,9
	C24,15.75,20.688,17.781,18.984,20z"/>
</svg>
