<?xml version="1.0" encoding="iso-8859-1"?>
<!-- Generator: Adobe Illustrator 14.0.0, SVG Export Plug-In . SVG Version: 6.00 Build 43363)  -->
<!DOCTYPE svg PUBLIC "-//W3C//DTD SVG 1.1//EN" "http://www.w3.org/Graphics/SVG/1.1/DTD/svg11.dtd">
<svg version="1.1" id="Layer_1" xmlns="http://www.w3.org/2000/svg" xmlns:xlink="http://www.w3.org/1999/xlink" x="0px" y="0px"
	 width="30px" height="30px" viewBox="0 0 30 30" style="enable-background:new 0 0 30 30;" xml:space="preserve">
<path d="M15,0C8.925,0,4,4.925,4,11c0,7.539,8.708,17.125,11,19c2.291-1.875,11-11.461,11-19C26,4.925,21.075,0,15,0z M15,27.258
	C11.955,24.139,6,16.709,6,11c0-4.962,4.038-9,9-9c4.963,0,9,4.038,9,9C24,16.709,18.045,24.139,15,27.258z M15,6
	c-2.761,0-5,2.239-5,5s2.239,5,5,5c2.762,0,5-2.239,5-5S17.762,6,15,6z M15,14c-1.657,0-3-1.343-3-3s1.343-3,3-3
	c1.656,0,3,1.343,3,3S16.656,14,15,14z"/>
</svg>
