<?xml version="1.0" encoding="iso-8859-1"?>
<!-- Generator: Adobe Illustrator 14.0.0, SVG Export Plug-In . SVG Version: 6.00 Build 43363)  -->
<!DOCTYPE svg PUBLIC "-//W3C//DTD SVG 1.1//EN" "http://www.w3.org/Graphics/SVG/1.1/DTD/svg11.dtd">
<svg version="1.1" id="Layer_1" xmlns="http://www.w3.org/2000/svg" xmlns:xlink="http://www.w3.org/1999/xlink" x="0px" y="0px"
	 width="30px" height="30px" viewBox="0 0 30 30" style="enable-background:new 0 0 30 30;" xml:space="preserve">
<path d="M26,16c0,3.309-2.691,6-6,6H5.813l3.594-3.594L8,17l-6,6l6,6l1.406-1.406L5.813,24H20c4.4,0,8-3.6,8-8v-1h-2V16z M4,14
	c0-3.309,2.691-6,6-6h14.188l-3.594,3.594L22,13l6-6l-6-6l-1.406,1.406L24.188,6H10c-4.4,0-8,3.6-8,8v1h2V14z"/>
</svg>
