<?xml version="1.0" encoding="iso-8859-1"?>
<!-- Generator: Adobe Illustrator 14.0.0, SVG Export Plug-In . SVG Version: 6.00 Build 43363)  -->
<!DOCTYPE svg PUBLIC "-//W3C//DTD SVG 1.1//EN" "http://www.w3.org/Graphics/SVG/1.1/DTD/svg11.dtd">
<svg version="1.1" id="Layer_1" xmlns="http://www.w3.org/2000/svg" xmlns:xlink="http://www.w3.org/1999/xlink" x="0px" y="0px"
	 width="30px" height="30px" viewBox="0 0 30 30" style="enable-background:new 0 0 30 30;" xml:space="preserve">
<path d="M0,4v22h30V4H0z M17.591,16.33C16.137,17.753,15.819,18,15,18s-1.137-0.247-2.555-1.635L2,6h26L17.591,16.33z M2,8.814
	l7.17,7.119L2,21.8V8.814z M2.445,24l8.141-6.661L11,17.75c1.438,1.406,2.281,2.25,4,2.25s2.563-0.844,4-2.25l0.414-0.411L27.555,24
	H2.445z M28,21.8l-7.17-5.867L28,8.814V21.8z"/>
</svg>
