<?xml version="1.0" encoding="iso-8859-1"?>
<!-- Generator: Adobe Illustrator 14.0.0, SVG Export Plug-In . SVG Version: 6.00 Build 43363)  -->
<!DOCTYPE svg PUBLIC "-//W3C//DTD SVG 1.1//EN" "http://www.w3.org/Graphics/SVG/1.1/DTD/svg11.dtd">
<svg version="1.1" id="Layer_1" xmlns="http://www.w3.org/2000/svg" xmlns:xlink="http://www.w3.org/1999/xlink" x="0px" y="0px"
	 width="30px" height="30px" viewBox="0 0 30 30" style="enable-background:new 0 0 30 30;" xml:space="preserve">
<path d="M19,3v2h4.6l-5.978,5.979C16.081,9.742,14.129,9,12,9c-4.971,0-9,4.029-9,9s4.029,9,9,9s9-4.029,9-9
	c0-2.129-0.743-4.081-1.978-5.621L25,6.4V11h2V3H19z M12,25c-3.866,0-7-3.134-7-7s3.134-7,7-7s7,3.134,7,7S15.866,25,12,25z"/>
</svg>
