<?xml version="1.0" encoding="iso-8859-1"?>
<!-- Generator: Adobe Illustrator 14.0.0, SVG Export Plug-In . SVG Version: 6.00 Build 43363)  -->
<!DOCTYPE svg PUBLIC "-//W3C//DTD SVG 1.1//EN" "http://www.w3.org/Graphics/SVG/1.1/DTD/svg11.dtd">
<svg version="1.1" id="Layer_1" xmlns="http://www.w3.org/2000/svg" xmlns:xlink="http://www.w3.org/1999/xlink" x="0px" y="0px"
	 width="30px" height="30px" viewBox="0 0 30 30" style="enable-background:new 0 0 30 30;" xml:space="preserve">
<path d="M20.2,0L0,20.2L9.8,30L30,9.8L20.2,0z M2.828,20.2l1.986-1.985L6.6,20L8,18.6l-1.785-1.785l1.6-1.6L9.6,17l1.4-1.4
	l-1.785-1.785l1.6-1.6L14.6,16l1.4-1.4l-3.785-3.785l1.6-1.6L15.6,11L17,9.6l-1.785-1.785l1.6-1.6L18.6,8L20,6.6l-1.785-1.785
	L20.2,2.828L27.172,9.8L9.8,27.172L2.828,20.2z"/>
</svg>
