<?xml version="1.0" encoding="iso-8859-1"?>
<!-- Generator: Adobe Illustrator 14.0.0, SVG Export Plug-In . SVG Version: 6.00 Build 43363)  -->
<!DOCTYPE svg PUBLIC "-//W3C//DTD SVG 1.1//EN" "http://www.w3.org/Graphics/SVG/1.1/DTD/svg11.dtd">
<svg version="1.1" id="Layer_1" xmlns="http://www.w3.org/2000/svg" xmlns:xlink="http://www.w3.org/1999/xlink" x="0px" y="0px"
	 width="30px" height="30px" viewBox="0 0 30 30" style="enable-background:new 0 0 30 30;" xml:space="preserve">
<path d="M15,20c3.313,0,6-2.687,6-6V6c0-3.313-2.687-6-6-6S9,2.687,9,6v8C9,17.313,11.687,20,15,20z M11,6c0-2.206,1.794-4,4-4
	s4,1.794,4,4v8c0,2.205-1.794,4-4,4s-4-1.795-4-4V6z M25,14v-4h-2v4c0,4.418-3.582,8-8,8s-8-3.582-8-8v-4H5v4
	c0,5.186,3.947,9.447,9,9.949V28H7v2h16v-2h-7v-4.051C21.053,23.447,25,19.186,25,14z"/>
</svg>
