<?xml version="1.0" encoding="iso-8859-1"?>
<!-- Generator: Adobe Illustrator 14.0.0, SVG Export Plug-In . SVG Version: 6.00 Build 43363)  -->
<!DOCTYPE svg PUBLIC "-//W3C//DTD SVG 1.1//EN" "http://www.w3.org/Graphics/SVG/1.1/DTD/svg11.dtd">
<svg version="1.1" id="Layer_1" xmlns="http://www.w3.org/2000/svg" xmlns:xlink="http://www.w3.org/1999/xlink" x="0px" y="0px"
	 width="30px" height="30px" viewBox="0 0 30 30" style="enable-background:new 0 0 30 30;" xml:space="preserve">
<path d="M23,18h-3v-6h3c2.762,0,5-2.238,5-5s-2.238-5-5-5s-5,2.238-5,5v3h-6V7c0-2.762-2.238-5-5-5S2,4.238,2,7s2.238,5,5,5h3v6H7
	c-2.762,0-5,2.238-5,5s2.238,5,5,5s5-2.238,5-5v-3h6v3c0,2.762,2.238,5,5,5s5-2.238,5-5S25.762,18,23,18z M23,4c1.657,0,3,1.343,3,3
	s-1.343,3-3,3h-3V7C20,5.343,21.343,4,23,4z M4,7c0-1.657,1.343-3,3-3s3,1.343,3,3v3H7C5.343,10,4,8.657,4,7z M7,26
	c-1.657,0-3-1.343-3-3s1.343-3,3-3h3v3C10,24.657,8.657,26,7,26z M12,18v-6h6v6H12z M23,26c-1.657,0-3-1.343-3-3v-3h3
	c1.657,0,3,1.343,3,3S24.657,26,23,26z"/>
</svg>
