<?xml version="1.0" encoding="iso-8859-1"?>
<!-- Generator: Adobe Illustrator 14.0.0, SVG Export Plug-In . SVG Version: 6.00 Build 43363)  -->
<!DOCTYPE svg PUBLIC "-//W3C//DTD SVG 1.1//EN" "http://www.w3.org/Graphics/SVG/1.1/DTD/svg11.dtd">
<svg version="1.1" id="Layer_1" xmlns="http://www.w3.org/2000/svg" xmlns:xlink="http://www.w3.org/1999/xlink" x="0px" y="0px"
	 width="30px" height="30px" viewBox="0 0 30 30" style="enable-background:new 0 0 30 30;" xml:space="preserve">
<path d="M4,11c-2.209,0-4,1.791-4,4s1.791,4,4,4s4-1.791,4-4S6.209,11,4,11z M4,17c-1.104,0-2-0.896-2-2s0.896-2,2-2s2,0.896,2,2
	S5.104,17,4,17z M15,11c-2.209,0-4,1.791-4,4s1.791,4,4,4s4-1.791,4-4S17.209,11,15,11z M15,17c-1.104,0-2-0.896-2-2s0.896-2,2-2
	s2,0.896,2,2S16.104,17,15,17z M26,11c-2.209,0-4,1.791-4,4s1.791,4,4,4s4-1.791,4-4S28.209,11,26,11z M26,17c-1.104,0-2-0.896-2-2
	s0.896-2,2-2s2,0.896,2,2S27.104,17,26,17z"/>
</svg>
