<?xml version="1.0" encoding="iso-8859-1"?>
<!-- Generator: Adobe Illustrator 14.0.0, SVG Export Plug-In . SVG Version: 6.00 Build 43363)  -->
<!DOCTYPE svg PUBLIC "-//W3C//DTD SVG 1.1//EN" "http://www.w3.org/Graphics/SVG/1.1/DTD/svg11.dtd">
<svg version="1.1" id="Layer_1" xmlns="http://www.w3.org/2000/svg" xmlns:xlink="http://www.w3.org/1999/xlink" x="0px" y="0px"
	 width="30px" height="30px" viewBox="0 0 30 30" style="enable-background:new 0 0 30 30;" xml:space="preserve">
<path d="M28,8V2h-6v2h-6v10h-4v-4H2v10h10v-4h4v10h6v2h6v-6h-6v2h-4v-8h4v2h6v-6h-6v2h-4V6h4v2H28z M10,18H4v-6h6V18z M24,24h2v2h-2
	V24z M24,14h2v2h-2V14z M24,4h2v2h-2V4z"/>
</svg>
