<?xml version="1.0" encoding="iso-8859-1"?>
<!-- Generator: Adobe Illustrator 14.0.0, SVG Export Plug-In . SVG Version: 6.00 Build 43363)  -->
<!DOCTYPE svg PUBLIC "-//W3C//DTD SVG 1.1//EN" "http://www.w3.org/Graphics/SVG/1.1/DTD/svg11.dtd">
<svg version="1.1" id="Layer_1" xmlns="http://www.w3.org/2000/svg" xmlns:xlink="http://www.w3.org/1999/xlink" x="0px" y="0px"
	 width="30px" height="30px" viewBox="0 0 30 30" style="enable-background:new 0 0 30 30;" xml:space="preserve">
<path d="M7,2v4H1v18c0,2.209,1.791,4,4,4h20c2.209,0,4-1.791,4-4V2H7z M7,24c0,1.104-0.896,2-2,2s-2-0.896-2-2V8h4V24z M27,24
	c0,1.104-0.896,2-2,2H8.463C8.805,25.411,9,24.729,9,24V4h18V24z M25,6H11v8h14V6z M23,12H13V8h10V12z M25,16H11v2h14V16z M25,20H11
	v2h14V20z"/>
</svg>
