<?xml version="1.0" encoding="iso-8859-1"?>
<!-- Generator: Adobe Illustrator 14.0.0, SVG Export Plug-In . SVG Version: 6.00 Build 43363)  -->
<!DOCTYPE svg PUBLIC "-//W3C//DTD SVG 1.1//EN" "http://www.w3.org/Graphics/SVG/1.1/DTD/svg11.dtd">
<svg version="1.1" id="Layer_1" xmlns="http://www.w3.org/2000/svg" xmlns:xlink="http://www.w3.org/1999/xlink" x="0px" y="0px"
	 width="30px" height="30px" viewBox="0 0 30 30" style="enable-background:new 0 0 30 30;" xml:space="preserve">
<path d="M23,1c-3.313,0-6,2.687-6,6s2.687,6,6,6s6-2.687,6-6S26.313,1,23,1z M23,11c-2.209,0-4-1.791-4-4s1.791-4,4-4s4,1.791,4,4
	S25.209,11,23,11z M23,25c0,1.103-0.897,2-2,2H5c-1.103,0-2-0.897-2-2V9c0-1.103,0.897-2,2-2h10c0-0.691,0.098-1.359,0.262-2H5
	C2.8,5,1,6.8,1,9v16c0,2.2,1.8,4,4,4h16c2.2,0,4-1.8,4-4V14.737C24.359,14.903,23.691,15,23,15V25z"/>
</svg>
