<?xml version="1.0" encoding="iso-8859-1"?>
<!-- Generator: Adobe Illustrator 14.0.0, SVG Export Plug-In . SVG Version: 6.00 Build 43363)  -->
<!DOCTYPE svg PUBLIC "-//W3C//DTD SVG 1.1//EN" "http://www.w3.org/Graphics/SVG/1.1/DTD/svg11.dtd">
<svg version="1.1" id="Layer_1" xmlns="http://www.w3.org/2000/svg" xmlns:xlink="http://www.w3.org/1999/xlink" x="0px" y="0px"
	 width="30px" height="30px" viewBox="0 0 30 30" style="enable-background:new 0 0 30 30;" xml:space="preserve">
<path d="M20.269,7.512L23,0H7l2.731,7.512C6.895,9.276,5,12.413,5,16c0,5.146,5.031,12.594,6,14h8c0.969-1.406,6-8.854,6-14
	C25,12.413,23.105,9.276,20.269,7.512z M9.855,2h10.289l-1.684,4.628C17.381,6.229,16.219,6,15,6s-2.381,0.229-3.461,0.628L9.855,2z
	 M15,18c-1.104,0-2-0.896-2-2s0.896-2,2-2s2,0.896,2,2S16.104,18,15,18z M17.936,28H16v-8.142c1.723-0.446,3-1.997,3-3.858
	c0-2.209-1.791-4-4-4s-4,1.791-4,4c0,1.861,1.277,3.412,3,3.858V28h-1.936C9.518,24.138,7,19.197,7,16c0-4.411,3.589-8,8-8
	s8,3.589,8,8C23,19.197,20.482,24.138,17.936,28z"/>
</svg>
