<?xml version="1.0" encoding="iso-8859-1"?>
<!-- Generator: Adobe Illustrator 14.0.0, SVG Export Plug-In . SVG Version: 6.00 Build 43363)  -->
<!DOCTYPE svg PUBLIC "-//W3C//DTD SVG 1.1//EN" "http://www.w3.org/Graphics/SVG/1.1/DTD/svg11.dtd">
<svg version="1.1" id="Layer_1" xmlns="http://www.w3.org/2000/svg" xmlns:xlink="http://www.w3.org/1999/xlink" x="0px" y="0px"
	 width="30px" height="30px" viewBox="0 0 30 30" style="enable-background:new 0 0 30 30;" xml:space="preserve">
<path d="M21.8,2l-16,26h2.4l16-26H21.8z M12,9c0-3.313-2.238-6-5-6S2,5.687,2,9s2.238,6,5,6S12,12.313,12,9z M4,9
	c0-2.168,1.374-4,3-4s3,1.832,3,4s-1.374,4-3,4S4,11.168,4,9z M23,15c-2.762,0-5,2.687-5,6s2.238,6,5,6s5-2.687,5-6S25.762,15,23,15
	z M23,25c-1.626,0-3-1.832-3-4s1.374-4,3-4s3,1.832,3,4S24.626,25,23,25z"/>
</svg>
