<?xml version="1.0" encoding="iso-8859-1"?>
<!-- Generator: Adobe Illustrator 14.0.0, SVG Export Plug-In . SVG Version: 6.00 Build 43363)  -->
<!DOCTYPE svg PUBLIC "-//W3C//DTD SVG 1.1//EN" "http://www.w3.org/Graphics/SVG/1.1/DTD/svg11.dtd">
<svg version="1.1" id="Layer_1" xmlns="http://www.w3.org/2000/svg" xmlns:xlink="http://www.w3.org/1999/xlink" x="0px" y="0px"
	 width="30px" height="30px" viewBox="0 0 30 30" style="enable-background:new 0 0 30 30;" xml:space="preserve">
<path d="M9,17c0,3.313,2.687,6,6,6c8.416,0,13.833-19.25,14-20C28.25,3.167,9,8.584,9,17z M25.988,6.013
	C23.958,11.769,19.648,21,15,21c-2.205,0-4-1.795-4-4C11,12.354,20.227,8.045,25.988,6.013z M26.73,14.486
	C26.904,15.298,27,16.138,27,17v6c0,1.104-0.896,2-2,2H5c-1.104,0-2-0.896-2-2v-6C3,10.383,8.383,5,15,5
	c0.862,0,1.702,0.096,2.514,0.27c0.9-0.457,1.803-0.877,2.684-1.262C18.589,3.363,16.838,3,15,3C7.268,3,1,9.268,1,17v6
	c0,2.2,1.8,4,4,4h20c2.2,0,4-1.8,4-4v-6c0-1.838-0.363-3.589-1.008-5.197C27.607,12.684,27.188,13.586,26.73,14.486z"/>
</svg>
