<?xml version="1.0" encoding="iso-8859-1"?>
<!-- Generator: Adobe Illustrator 14.0.0, SVG Export Plug-In . SVG Version: 6.00 Build 43363)  -->
<!DOCTYPE svg PUBLIC "-//W3C//DTD SVG 1.1//EN" "http://www.w3.org/Graphics/SVG/1.1/DTD/svg11.dtd">
<svg version="1.1" id="Layer_1" xmlns="http://www.w3.org/2000/svg" xmlns:xlink="http://www.w3.org/1999/xlink" x="0px" y="0px"
	 width="30px" height="30px" viewBox="0 0 30 30" style="enable-background:new 0 0 30 30;" xml:space="preserve">
<path d="M2,2v26h26V2H2z M26,26H4v-4h22V26z M26,20H4V4h22V20z M8,10c1.104,0,2-0.896,2-2S9.104,6,8,6S6,6.896,6,8S6.896,10,8,10z
	 M18,7l-5,5l-2-1l-5,7h18L18,7z M11.635,13.553l1.76,0.881l4.129-4.129L20.631,16H9.887L11.635,13.553z"/>
</svg>
