<?xml version="1.0" encoding="iso-8859-1"?>
<!-- Generator: Adobe Illustrator 14.0.0, SVG Export Plug-In . SVG Version: 6.00 Build 43363)  -->
<!DOCTYPE svg PUBLIC "-//W3C//DTD SVG 1.1//EN" "http://www.w3.org/Graphics/SVG/1.1/DTD/svg11.dtd">
<svg version="1.1" id="Layer_1" xmlns="http://www.w3.org/2000/svg" xmlns:xlink="http://www.w3.org/1999/xlink" x="0px" y="0px"
	 width="30px" height="30px" viewBox="0 0 30 30" style="enable-background:new 0 0 30 30;" xml:space="preserve">
<path d="M24,9c0-4.971-4.029-9-9-9S6,4.029,6,9v14h6v4c0,1.656,1.343,3,3,3c1.656,0,3-1.344,3-3v-4h6V9z M16,27c0,0.552-0.449,1-1,1
	c-0.551,0-1-0.448-1-1v-4h2V27z M22,21H8V9c0-3.859,3.14-7,7-7c3.859,0,7,3.141,7,7V21z"/>
</svg>
