<?xml version="1.0" encoding="iso-8859-1"?>
<!-- Generator: Adobe Illustrator 14.0.0, SVG Export Plug-In . SVG Version: 6.00 Build 43363)  -->
<!DOCTYPE svg PUBLIC "-//W3C//DTD SVG 1.1//EN" "http://www.w3.org/Graphics/SVG/1.1/DTD/svg11.dtd">
<svg version="1.1" id="Layer_1" xmlns="http://www.w3.org/2000/svg" xmlns:xlink="http://www.w3.org/1999/xlink" x="0px" y="0px"
	 width="30px" height="30px" viewBox="0 0 30 30" style="enable-background:new 0 0 30 30;" xml:space="preserve">
<path d="M15,5C10.906,1.469,3.875,1,1,1v24c2.875,0,9.906,0.469,14,4c4.094-3.531,11.125-4,14-4V1C26.125,1,19.094,1.469,15,5z
	 M3,3.068c4.69,0.429,8.085,1.265,11,3.691v19.147c-3.624-2.037-8.035-2.677-11-2.848V3.068z M27,23.059
	c-2.965,0.171-7.376,0.811-11,2.848V6.759c2.915-2.426,6.31-3.262,11-3.691V23.059z"/>
</svg>
