<?xml version="1.0" encoding="iso-8859-1"?>
<!-- Generator: Adobe Illustrator 14.0.0, SVG Export Plug-In . SVG Version: 6.00 Build 43363)  -->
<!DOCTYPE svg PUBLIC "-//W3C//DTD SVG 1.1//EN" "http://www.w3.org/Graphics/SVG/1.1/DTD/svg11.dtd">
<svg version="1.1" id="Layer_1" xmlns="http://www.w3.org/2000/svg" xmlns:xlink="http://www.w3.org/1999/xlink" x="0px" y="0px"
	 width="30px" height="30px" viewBox="0 0 30 30" style="enable-background:new 0 0 30 30;" xml:space="preserve">
<path d="M15,13c1.104,0,2-0.896,2-2s-0.896-2-2-2s-2,0.896-2,2S13.896,13,15,13z M15,17c3.313,0,6-2.687,6-6s-2.687-6-6-6
	s-6,2.687-6,6S11.687,17,15,17z M15,7c2.209,0,4,1.791,4,4s-1.791,4-4,4s-4-1.791-4-4S12.791,7,15,7z M11,25c1.104,0,2-0.896,2-2
	s-0.896-2-2-2s-2,0.896-2,2S9.896,25,11,25z M5,1v28h20V1H5z M23,27H7V3h16V27z"/>
</svg>
