<?xml version="1.0" encoding="iso-8859-1"?>
<!-- Generator: Adobe Illustrator 14.0.0, SVG Export Plug-In . SVG Version: 6.00 Build 43363)  -->
<!DOCTYPE svg PUBLIC "-//W3C//DTD SVG 1.1//EN" "http://www.w3.org/Graphics/SVG/1.1/DTD/svg11.dtd">
<svg version="1.1" id="Layer_1" xmlns="http://www.w3.org/2000/svg" xmlns:xlink="http://www.w3.org/1999/xlink" x="0px" y="0px"
	 width="30px" height="30px" viewBox="0 0 30 30" style="enable-background:new 0 0 30 30;" xml:space="preserve">
<path d="M15,0C6.716,0,0,6.716,0,15s6.716,15,15,15s15-6.716,15-15S23.284,0,15,0z M15,28C7.82,28,2,22.18,2,15S7.82,2,15,2
	s13,5.82,13,13S22.18,28,15,28z M11,14c1.104,0,2-0.896,2-2v-2H8v2h1C9,13.104,9.896,14,11,14z M19,14c1.104,0,2-0.896,2-2h1v-2h-5
	v2C17,13.104,17.896,14,19,14z M15,18c-3.277,0-6.136,1.757-7.71,4.374l1.713,1.028C10.228,21.366,12.451,20,15,20
	s4.772,1.366,5.996,3.402l1.714-1.028C21.136,19.757,18.277,18,15,18z"/>
</svg>
