<?xml version="1.0" encoding="iso-8859-1"?>
<!-- Generator: Adobe Illustrator 14.0.0, SVG Export Plug-In . SVG Version: 6.00 Build 43363)  -->
<!DOCTYPE svg PUBLIC "-//W3C//DTD SVG 1.1//EN" "http://www.w3.org/Graphics/SVG/1.1/DTD/svg11.dtd">
<svg version="1.1" id="Layer_1" xmlns="http://www.w3.org/2000/svg" xmlns:xlink="http://www.w3.org/1999/xlink" x="0px" y="0px"
	 width="30px" height="30px" viewBox="0 0 30 30" style="enable-background:new 0 0 30 30;" xml:space="preserve">
<path d="M15,0C6.716,0,0,6.716,0,15s6.716,15,15,15s15-6.716,15-15S23.284,0,15,0z M15,28C7.82,28,2,22.18,2,15S7.82,2,15,2
	s13,5.82,13,13S22.18,28,15,28z M21,12c0-3.313-2.687-6-6-6s-6,2.687-6,6c0,2.111,1.093,3.965,2.741,5.033L10,24h10l-1.741-6.967
	C19.907,15.965,21,14.111,21,12z M15.91,15.886L17.438,22h-4.877l1.528-6.114C12.323,15.472,11,13.892,11,12c0-2.205,1.794-4,4-4
	s4,1.795,4,4C19,13.892,17.677,15.472,15.91,15.886z"/>
</svg>
