<?xml version="1.0" encoding="iso-8859-1"?>
<!-- Generator: Adobe Illustrator 14.0.0, SVG Export Plug-In . SVG Version: 6.00 Build 43363)  -->
<!DOCTYPE svg PUBLIC "-//W3C//DTD SVG 1.1//EN" "http://www.w3.org/Graphics/SVG/1.1/DTD/svg11.dtd">
<svg version="1.1" id="Layer_1" xmlns="http://www.w3.org/2000/svg" xmlns:xlink="http://www.w3.org/1999/xlink" x="0px" y="0px"
	 width="30px" height="30px" viewBox="0 0 30 30" style="enable-background:new 0 0 30 30;" xml:space="preserve">
<polygon points="28.551,17.528 28.036,15.607 21.206,17.438 16.995,15 21.206,12.562 28.036,14.393 28.551,12.471 23.642,11.155 
	29,8.062 28,6.33 22.642,9.424 23.957,4.515 22.036,4 20.206,10.83 16,13.266 16,9 21,4 19.594,2.594 16,6.188 16,0 14,0 14,6.188 
	10.406,2.594 9,4 14,9 14,13.266 9.794,10.83 7.964,4 6.043,4.515 7.358,9.424 2,6.33 1,8.062 6.358,11.155 1.449,12.471 
	1.964,14.393 8.794,12.562 13.005,15 8.794,17.438 1.964,15.607 1.449,17.528 6.358,18.844 1,21.938 2,23.669 7.358,20.575 
	6.043,25.484 7.964,26 9.794,19.169 14,16.733 14,21 9,26 10.406,27.406 14,23.813 14,30 16,30 16,23.813 19.594,27.406 21,26 
	16,21 16,16.733 20.206,19.169 22.036,26 23.957,25.484 22.642,20.575 28,23.669 29,21.938 23.642,18.844 "/>
</svg>
