<?xml version="1.0" encoding="iso-8859-1"?>
<!-- Generator: Adobe Illustrator 14.0.0, SVG Export Plug-In . SVG Version: 6.00 Build 43363)  -->
<!DOCTYPE svg PUBLIC "-//W3C//DTD SVG 1.1//EN" "http://www.w3.org/Graphics/SVG/1.1/DTD/svg11.dtd">
<svg version="1.1" id="Layer_1" xmlns="http://www.w3.org/2000/svg" xmlns:xlink="http://www.w3.org/1999/xlink" x="0px" y="0px"
	 width="30px" height="30px" viewBox="0 0 30 30" style="enable-background:new 0 0 30 30;" xml:space="preserve">
<path d="M15,0C6.716,0,0,6.715,0,15s6.716,15,15,15s15-6.715,15-15S23.284,0,15,0z M27.017,10.044l-4.998,1.624L16,7.236V2.051
	C20.989,2.432,25.189,5.618,27.017,10.044z M18.529,20h-7.059l-2.137-6.845L15,8.983l5.666,4.172L18.529,20z M14,2.051v5.186
	l-6.019,4.432l-4.998-1.624C4.811,5.618,9.011,2.432,14,2.051z M2,15c0-1.053,0.139-2.071,0.375-3.052l4.993,1.623l2.234,7.156
	l-3.025,4.164C3.779,22.508,2,18.964,2,15z M8.197,26.063L11.149,22h7.701l2.951,4.063C19.821,27.283,17.497,28,15,28
	S10.179,27.283,8.197,26.063z M23.423,24.892l-3.025-4.163l2.234-7.158l4.993-1.621C27.861,12.929,28,13.947,28,15
	C28,18.964,26.221,22.508,23.423,24.892z"/>
</svg>
