<?xml version="1.0" encoding="iso-8859-1"?>
<!-- Generator: Adobe Illustrator 14.0.0, SVG Export Plug-In . SVG Version: 6.00 Build 43363)  -->
<!DOCTYPE svg PUBLIC "-//W3C//DTD SVG 1.1//EN" "http://www.w3.org/Graphics/SVG/1.1/DTD/svg11.dtd">
<svg version="1.1" id="Layer_1" xmlns="http://www.w3.org/2000/svg" xmlns:xlink="http://www.w3.org/1999/xlink" x="0px" y="0px"
	 width="30px" height="30px" viewBox="0 0 30 30" style="enable-background:new 0 0 30 30;" xml:space="preserve">
<path d="M29,11L25,1H5L1,11c0,1.774,0.775,3.364,2,4.463V29h14v-8h4v8h6V15.463C28.225,14.364,29,12.774,29,11z M6.354,3h17.293
	l3.338,8.348C26.809,13.391,25.088,15,23,15c-0.98,0-1.928-0.364-2.664-1.025L19,12.776l-1.336,1.198C16.928,14.636,15.98,15,15,15
	s-1.928-0.364-2.664-1.025L11,12.776l-1.336,1.198C8.928,14.636,7.98,15,7,15c-2.088,0-3.809-1.609-3.984-3.652L6.354,3z M25,27h-2
	v-8h-8v8H5V16.651C5.626,16.873,6.298,17,7,17c1.539,0,2.938-0.584,4-1.537C12.063,16.416,13.461,17,15,17s2.938-0.584,4-1.537
	C20.063,16.416,21.461,17,23,17c0.702,0,1.374-0.127,2-0.349V27z"/>
</svg>
