<?xml version="1.0" encoding="iso-8859-1"?>
<!-- Generator: Adobe Illustrator 14.0.0, SVG Export Plug-In . SVG Version: 6.00 Build 43363)  -->
<!DOCTYPE svg PUBLIC "-//W3C//DTD SVG 1.1//EN" "http://www.w3.org/Graphics/SVG/1.1/DTD/svg11.dtd">
<svg version="1.1" id="Layer_1" xmlns="http://www.w3.org/2000/svg" xmlns:xlink="http://www.w3.org/1999/xlink" x="0px" y="0px"
	 width="30px" height="30px" viewBox="0 0 30 30" style="enable-background:new 0 0 30 30;" xml:space="preserve">
<path d="M24,2H6L2,16v12h26V16L24,2z M7.509,4h14.982l3.429,12H19c0,2.209-1.791,4-4,4s-4-1.791-4-4H4.08L7.509,4z M26,26H4v-8
	h5.349c0.825,2.328,3.04,4,5.651,4s4.826-1.672,5.651-4H26V26z M21,7.438L19.594,6L13,13.094L10.438,10L9,11.375L13,16L21,7.438z"/>
</svg>
