<?xml version="1.0" encoding="iso-8859-1"?>
<!-- Generator: Adobe Illustrator 14.0.0, SVG Export Plug-In . SVG Version: 6.00 Build 43363)  -->
<!DOCTYPE svg PUBLIC "-//W3C//DTD SVG 1.1//EN" "http://www.w3.org/Graphics/SVG/1.1/DTD/svg11.dtd">
<svg version="1.1" id="Layer_1" xmlns="http://www.w3.org/2000/svg" xmlns:xlink="http://www.w3.org/1999/xlink" x="0px" y="0px"
	 width="30px" height="30px" viewBox="0 0 30 30" style="enable-background:new 0 0 30 30;" xml:space="preserve">
<path d="M21,5c0-2.2-1.8-4-4-4h-4c-2.2,0-4,1.8-4,4H2v2h2v22h22V7h2V5H21z M13,3h4c1.104,0,2,0.897,2,2h-8C11,3.897,11.897,3,13,3z
	 M24,27H6V7h18V27z M16,11h-2v12h2V11z M20,11h-2v12h2V11z M12,11h-2v12h2V11z"/>
</svg>
