<?xml version="1.0" encoding="iso-8859-1"?>
<!-- Generator: Adobe Illustrator 14.0.0, SVG Export Plug-In . SVG Version: 6.00 Build 43363)  -->
<!DOCTYPE svg PUBLIC "-//W3C//DTD SVG 1.1//EN" "http://www.w3.org/Graphics/SVG/1.1/DTD/svg11.dtd">
<svg version="1.1" id="Layer_1" xmlns="http://www.w3.org/2000/svg" xmlns:xlink="http://www.w3.org/1999/xlink" x="0px" y="0px"
	 width="30px" height="30px" viewBox="0 0 30 30" style="enable-background:new 0 0 30 30;" xml:space="preserve">
<path d="M16,2.051V1h-2v1.051C6.185,2.567,0,9.054,0,17c0-2.209,2.238-4,5-4s5,1.791,5,4c0-1.935,1.718-3.549,4-3.919V25
	c0,2.209,1.791,4,4,4s4-1.791,4-4v-2h-2v2c0,1.104-0.896,2-2,2s-2-0.896-2-2V13.081c2.282,0.37,4,1.984,4,3.919c0-2.209,2.238-4,5-4
	s5,1.791,5,4C30,9.054,23.815,2.567,16,2.051z M25,11c-1.957,0-3.729,0.691-5,1.805C18.729,11.691,16.957,11,15,11
	s-3.729,0.691-5,1.805C8.729,11.691,6.957,11,5,11c-0.555,0-1.096,0.056-1.613,0.161C5.529,6.917,9.93,4,15,4
	s9.471,2.917,11.613,7.161C26.096,11.056,25.555,11,25,11z"/>
</svg>
