<?xml version="1.0" encoding="iso-8859-1"?>
<!-- Generator: Adobe Illustrator 14.0.0, SVG Export Plug-In . SVG Version: 6.00 Build 43363)  -->
<!DOCTYPE svg PUBLIC "-//W3C//DTD SVG 1.1//EN" "http://www.w3.org/Graphics/SVG/1.1/DTD/svg11.dtd">
<svg version="1.1" id="Layer_1" xmlns="http://www.w3.org/2000/svg" xmlns:xlink="http://www.w3.org/1999/xlink" x="0px" y="0px"
	 width="30px" height="30px" viewBox="0 0 30 30" style="enable-background:new 0 0 30 30;" xml:space="preserve">
<path d="M9,12V8c0-3.313,2.687-6,6-6s6,2.687,6,6h2c0-4.418-3.582-8-8-8S7,3.582,7,8v4H3v18h24V12H9z M25,28H5V14h20V28z M18,19
	c0-1.656-1.344-3-3-3c-1.657,0-3,1.344-3,3v7h6V19z M16,24h-2v-5c0-0.553,0.448-1,1-1s1,0.447,1,1V24z"/>
</svg>
