<?xml version="1.0" encoding="iso-8859-1"?>
<!-- Generator: Adobe Illustrator 14.0.0, SVG Export Plug-In . SVG Version: 6.00 Build 43363)  -->
<!DOCTYPE svg PUBLIC "-//W3C//DTD SVG 1.1//EN" "http://www.w3.org/Graphics/SVG/1.1/DTD/svg11.dtd">
<svg version="1.1" id="Layer_1" xmlns="http://www.w3.org/2000/svg" xmlns:xlink="http://www.w3.org/1999/xlink" x="0px" y="0px"
	 width="30px" height="30px" viewBox="0 0 30 30" style="enable-background:new 0 0 30 30;" xml:space="preserve">
<path d="M10.604,17.849C11.904,18.579,13.402,19,15,19s3.096-0.421,4.396-1.151c0.769,0.304,1.484,0.703,2.167,1.151h3.212
	c-1.037-1.012-2.226-1.87-3.535-2.523C22.939,14.84,24,12.546,24,10c0-4.971-4.029-9-9-9s-9,4.029-9,9
	c0,2.546,1.061,4.84,2.76,6.477C4.162,18.771,1,23.513,1,29h18v-2H3.166C3.871,22.815,6.756,19.37,10.604,17.849z M8,10
	c0-3.866,3.135-7,7-7c3.867,0,7,3.134,7,7s-3.133,7-7,7C11.135,17,8,13.866,8,10z M26,24v-3h-2v3h-3v2h3v3h2v-3h3v-2H26z"/>
</svg>
