<?xml version="1.0" encoding="iso-8859-1"?>
<!-- Generator: Adobe Illustrator 14.0.0, SVG Export Plug-In . SVG Version: 6.00 Build 43363)  -->
<!DOCTYPE svg PUBLIC "-//W3C//DTD SVG 1.1//EN" "http://www.w3.org/Graphics/SVG/1.1/DTD/svg11.dtd">
<svg version="1.1" id="Layer_1" xmlns="http://www.w3.org/2000/svg" xmlns:xlink="http://www.w3.org/1999/xlink" x="0px" y="0px"
	 width="30px" height="30px" viewBox="0 0 30 30" style="enable-background:new 0 0 30 30;" xml:space="preserve">
<path d="M30,6l-8,4V8c0-2.2-1.8-4-4-4H4C1.8,4,0,5.8,0,8v14c0,2.2,1.8,4,4,4h14c2.2,0,4-1.8,4-4v-2l8,4V6z M20,22
	c0,1.103-0.897,2-2,2H4c-1.103,0-2-0.897-2-2V8c0-1.103,0.897-2,2-2h14c1.103,0,2,0.897,2,2V22z M22,12.236l3-1.5v8.528l-3-1.5
	V12.236z M28,20.764l-1-0.5V9.736l1-0.5V20.764z"/>
</svg>
