<?xml version="1.0" encoding="iso-8859-1"?>
<!-- Generator: Adobe Illustrator 14.0.0, SVG Export Plug-In . SVG Version: 6.00 Build 43363)  -->
<!DOCTYPE svg PUBLIC "-//W3C//DTD SVG 1.1//EN" "http://www.w3.org/Graphics/SVG/1.1/DTD/svg11.dtd">
<svg version="1.1" id="Layer_1" xmlns="http://www.w3.org/2000/svg" xmlns:xlink="http://www.w3.org/1999/xlink" x="0px" y="0px"
	 width="30px" height="30px" viewBox="0 0 30 30" style="enable-background:new 0 0 30 30;" xml:space="preserve">
<path d="M15,4C8.641,4,0,10.469,0,15s8.641,11,15,11s15-6.469,15-11S21.359,4,15,4z M15,24c-5.851,0-13-6.025-13-9s7.149-9,13-9
	s13,6.025,13,9S20.851,24,15,24z M15,8c-3.866,0-7,3.134-7,7s3.134,7,7,7s7-3.134,7-7S18.866,8,15,8z M15,20c-2.762,0-5-2.238-5-5
	c0-2.761,2.238-5,5-5s5,2.239,5,5C20,17.762,17.762,20,15,20z"/>
</svg>
