<?xml version="1.0" encoding="iso-8859-1"?>
<!-- Generator: Adobe Illustrator 14.0.0, SVG Export Plug-In . SVG Version: 6.00 Build 43363)  -->
<!DOCTYPE svg PUBLIC "-//W3C//DTD SVG 1.1//EN" "http://www.w3.org/Graphics/SVG/1.1/DTD/svg11.dtd">
<svg version="1.1" id="Layer_1" xmlns="http://www.w3.org/2000/svg" xmlns:xlink="http://www.w3.org/1999/xlink" x="0px" y="0px"
	 width="30px" height="30px" viewBox="0 0 30 30" style="enable-background:new 0 0 30 30;" xml:space="preserve">
<path d="M0,9v12h6l8,7V2L6,9H0z M5,19H2v-8h3V19z M7,10.783l5-4.376v17.186l-5-4.376V10.783z M20.291,5.357l-1.147,1.658
	C22.027,8.516,24,11.524,24,15s-1.973,6.484-4.856,7.984l1.147,1.658C23.693,22.772,26,19.156,26,15S23.693,7.228,20.291,5.357z
	 M22,15c0-2.795-1.641-5.199-4.008-6.321l-1.162,1.679C18.684,11.088,20,12.886,20,15s-1.316,3.912-3.17,4.643l1.162,1.679
	C20.359,20.199,22,17.795,22,15z"/>
</svg>
