<?xml version="1.0" encoding="iso-8859-1"?>
<!-- Generator: Adobe Illustrator 14.0.0, SVG Export Plug-In . SVG Version: 6.00 Build 43363)  -->
<!DOCTYPE svg PUBLIC "-//W3C//DTD SVG 1.1//EN" "http://www.w3.org/Graphics/SVG/1.1/DTD/svg11.dtd">
<svg version="1.1" id="Layer_1" xmlns="http://www.w3.org/2000/svg" xmlns:xlink="http://www.w3.org/1999/xlink" x="0px" y="0px"
	 width="30px" height="30px" viewBox="0 0 30 30" style="enable-background:new 0 0 30 30;" xml:space="preserve">
<path d="M21,7.014V0H9v7.014C6.575,8.839,5,11.731,5,15s1.575,6.161,4,7.986V30h12v-7.014c2.425-1.825,4-4.718,4-7.986
	S23.425,8.839,21,7.014z M11,2h8v3.838C17.774,5.302,16.423,5,15,5s-2.774,0.302-4,0.838V2z M19,28h-8v-3.838
	C12.226,24.698,13.577,25,15,25s2.774-0.302,4-0.838V28z M15,23c-4.418,0-8-3.582-8-8s3.582-8,8-8s8,3.582,8,8S19.418,23,15,23z
	 M16,9h-2v7h6v-2h-4V9z"/>
</svg>
