<?xml version="1.0" encoding="iso-8859-1"?>
<!-- Generator: Adobe Illustrator 14.0.0, SVG Export Plug-In . SVG Version: 6.00 Build 43363)  -->
<!DOCTYPE svg PUBLIC "-//W3C//DTD SVG 1.1//EN" "http://www.w3.org/Graphics/SVG/1.1/DTD/svg11.dtd">
<svg version="1.1" id="Layer_1" xmlns="http://www.w3.org/2000/svg" xmlns:xlink="http://www.w3.org/1999/xlink" x="0px" y="0px"
	 width="30px" height="30px" viewBox="0 0 30 30" style="enable-background:new 0 0 30 30;" xml:space="preserve">
<path d="M5.009,14.525l3.743,4.674C10.465,17.826,12.635,17,15,17s4.535,0.826,6.248,2.199l3.743-4.674
	C22.256,12.324,18.786,11,15,11S7.744,12.324,5.009,14.525z M20.832,16.52C19.056,15.531,17.042,15,15,15s-4.056,0.531-5.832,1.52
	l-1.264-1.578C10.044,13.666,12.463,13,15,13s4.956,0.666,7.096,1.941L20.832,16.52z M10.002,20.76L15,27l4.998-6.24
	C18.629,19.66,16.893,19,15,19S11.371,19.66,10.002,20.76z M15,23.801l-1.977-2.469C13.651,21.113,14.315,21,15,21
	s1.349,0.113,1.977,0.332L15,23.801z M15,3C9.322,3,4.109,4.976,0,8.271l3.752,4.685C6.833,10.483,10.741,9,15,9
	s8.167,1.483,11.248,3.956L30,8.271C25.891,4.976,20.678,3,15,3z M25.875,10.223C22.651,8.133,18.858,7,15,7
	S7.349,8.133,4.125,10.223L2.865,8.65C6.462,6.256,10.619,5,15,5s8.538,1.256,12.135,3.65L25.875,10.223z"/>
</svg>
