<?xml version="1.0" encoding="iso-8859-1"?>
<!-- Generator: Adobe Illustrator 14.0.0, SVG Export Plug-In . SVG Version: 6.00 Build 43363)  -->
<!DOCTYPE svg PUBLIC "-//W3C//DTD SVG 1.1//EN" "http://www.w3.org/Graphics/SVG/1.1/DTD/svg11.dtd">
<svg version="1.1" id="Layer_1" xmlns="http://www.w3.org/2000/svg" xmlns:xlink="http://www.w3.org/1999/xlink" x="0px" y="0px"
	 width="30px" height="30px" viewBox="0 0 30 30" style="enable-background:new 0 0 30 30;" xml:space="preserve">
<path style="fill:#fff" d="M30,24c-3-2-6-5-6-7v-5c0-3.534-2.042-6.584-5.006-8.057C18.963,1.762,17.189,0,15,0c-2.19,0-3.963,1.762-3.994,3.943
	C8.042,5.416,6,8.466,6,12v5c0,2-3,5-6,7h10.115C10.047,24.324,10,24.655,10,25c0,2.762,2.239,5,5,5c2.762,0,5-2.238,5-5
	c0-0.345-0.047-0.676-0.115-1H30z M15,2c0.813,0,1.511,0.488,1.823,1.186C16.234,3.064,15.625,3,15,3s-1.234,0.064-1.823,0.186
	C13.489,2.488,14.187,2,15,2z M8,17v-5c0-3.859,3.14-7,7-7c3.859,0,7,3.141,7,7v5c0,1.739,1.157,3.509,2.536,5H5.464
	C6.843,20.509,8,18.739,8,17z M18,25c0,1.656-1.344,3-3,3c-1.657,0-3-1.344-3-3c0-0.354,0.069-0.688,0.183-1h5.633
	C17.931,24.313,18,24.646,18,25z"/>
</svg>
