<?xml version="1.0" encoding="iso-8859-1"?>
<!-- Generator: Adobe Illustrator 14.0.0, SVG Export Plug-In . SVG Version: 6.00 Build 43363)  -->
<!DOCTYPE svg PUBLIC "-//W3C//DTD SVG 1.1//EN" "http://www.w3.org/Graphics/SVG/1.1/DTD/svg11.dtd">
<svg version="1.1" id="Layer_1" xmlns="http://www.w3.org/2000/svg" xmlns:xlink="http://www.w3.org/1999/xlink" x="0px" y="0px"
	 width="30px" height="30px" viewBox="0 0 30 30" style="enable-background:new 0 0 30 30;" xml:space="preserve">
<path style="fill:#fff" d="M26.6,2l-4.514,4.514c-0.828-1.068-1.869-1.963-3.092-2.57C18.963,1.762,17.189,0,15,0s-3.963,1.762-3.994,3.943
	C8.042,5.416,6,8.466,6,12v5c0,2-3,5-6,7h4.6L2,26.6L3.4,28L28,3.4L26.6,2z M15,2c0.813,0,1.511,0.488,1.823,1.186
	C16.234,3.064,15.625,3,15,3s-1.234,0.064-1.823,0.186C13.489,2.488,14.187,2,15,2z M6.6,22H5.464C6.843,20.509,8,18.739,8,17v-5
	c0-3.859,3.141-7,7-7c2.338,0,4.4,1.161,5.672,2.928L6.6,22z M30,24c-3-2-6-5-6-7v-5c0-0.552-0.066-1.086-0.161-1.61L22,12.229V17
	c0,1.739,1.157,3.509,2.536,5H12.229l-2.137,2.137C10.039,24.417,10,24.703,10,25c0,2.762,2.238,5,5,5s5-2.238,5-5
	c0-0.345-0.047-0.676-0.115-1H30z M15,28c-1.656,0-3-1.344-3-3c0-0.354,0.069-0.688,0.184-1h5.633C17.931,24.313,18,24.646,18,25
	C18,26.656,16.656,28,15,28z"/>
</svg>
