<?xml version="1.0" encoding="iso-8859-1"?>
<!-- Generator: Adobe Illustrator 14.0.0, SVG Export Plug-In . SVG Version: 6.00 Build 43363)  -->
<!DOCTYPE svg PUBLIC "-//W3C//DTD SVG 1.1//EN" "http://www.w3.org/Graphics/SVG/1.1/DTD/svg11.dtd">
<svg version="1.1" id="Layer_1" xmlns="http://www.w3.org/2000/svg" xmlns:xlink="http://www.w3.org/1999/xlink" x="0px" y="0px"
	 width="30px" height="30px" viewBox="0 0 30 30" style="enable-background:new 0 0 30 30;" xml:space="preserve">
<path style="fill:#fff" d="M28.49,22L19,2.891C18.422,1.703,17.25,0,15,0s-3.422,1.703-4,2.891L1.51,22C0.406,24.188,0,24.797,0,26
	c0,2.172,1.766,4,4,4h22c2.234,0,4-1.828,4-4C30,24.797,29.594,24.188,28.49,22z M26,28H4c-1.103,0-2-0.896-2-2
	c0-0.526,0.111-0.778,0.885-2.293L12.791,3.78C13.658,2,14.633,2,15,2s1.342,0,2.202,1.766l9.913,19.941
	C27.889,25.222,28,25.474,28,26C28,27.104,27.103,28,26,28z M14,20h2V8h-2V20z M14,26h2v-4h-2V26z"/>
</svg>
