<?xml version="1.0" encoding="iso-8859-1"?>
<!-- Generator: Adobe Illustrator 14.0.0, SVG Export Plug-In . SVG Version: 6.00 Build 43363)  -->
<!DOCTYPE svg PUBLIC "-//W3C//DTD SVG 1.1//EN" "http://www.w3.org/Graphics/SVG/1.1/DTD/svg11.dtd">
<svg version="1.1" id="Layer_1" xmlns="http://www.w3.org/2000/svg" xmlns:xlink="http://www.w3.org/1999/xlink" x="0px" y="0px"
	 width="30px" height="30px" viewBox="0 0 30 30" style="enable-background:new 0 0 30 30;" xml:space="preserve">
<path style="fill:#fff" d="M17,18l2,12h8l2-12H17z M25.306,28h-4.611l-0.667-4h5.945L25.306,28z M26.306,22h-6.611l-0.333-2h7.277L26.306,22z
	 M11,8.683V0H5v8.683C2.637,9.807,1,12.209,1,15v15h14V15C15,12.209,13.363,9.807,11,8.683z M7,2h2v1H7V2z M13,28H3v-3h10V28z
	 M13,23H3v-6h10V23z M3,15c0-2.547,1.688-4.172,4-5.054V5h2v4.946c2.313,0.882,4,2.507,4,5.054H3z"/>
</svg>
