<?xml version="1.0" encoding="iso-8859-1"?>
<!-- Generator: Adobe Illustrator 14.0.0, SVG Export Plug-In . SVG Version: 6.00 Build 43363)  -->
<!DOCTYPE svg PUBLIC "-//W3C//DTD SVG 1.1//EN" "http://www.w3.org/Graphics/SVG/1.1/DTD/svg11.dtd">
<svg version="1.1" id="Layer_1" xmlns="http://www.w3.org/2000/svg" xmlns:xlink="http://www.w3.org/1999/xlink" x="0px" y="0px"
	 width="30px" height="30px" viewBox="0 0 30 30" style="enable-background:new 0 0 30 30;" xml:space="preserve">
<path style="fill:#fff" d="M15,0L0,15l1.406,1.406L3,14.813V30h24V14.813l1.594,1.594L30,15L15,0z M25,28H5V12.813l10-10l10,10V28z M15,22
	c-1.104,0-2,0.896-2,2s0.896,2,2,2s2-0.896,2-2S16.104,22,15,22z M10,15c0,2.762,2.238,5,5,5s5-2.238,5-5s-2.238-5-5-5
	S10,12.238,10,15z M18,15c0,1.657-1.344,3-3,3s-3-1.343-3-3s1.344-3,3-3S18,13.343,18,15z"/>
</svg>
