<?xml version="1.0" encoding="iso-8859-1"?>
<!-- Generator: Adobe Illustrator 14.0.0, SVG Export Plug-In . SVG Version: 6.00 Build 43363)  -->
<!DOCTYPE svg PUBLIC "-//W3C//DTD SVG 1.1//EN" "http://www.w3.org/Graphics/SVG/1.1/DTD/svg11.dtd">
<svg version="1.1" id="Layer_1" xmlns="http://www.w3.org/2000/svg" xmlns:xlink="http://www.w3.org/1999/xlink" x="0px" y="0px"
	 width="30px" height="30px" viewBox="0 0 30 30" style="enable-background:new 0 0 30 30;" xml:space="preserve">
<path style="fill:#fff" d="M27,23V1H7C4.791,1,3,2.791,3,5v20c0,2.209,1.791,4,4,4h20v-2h-1v-4H27z M21,3v6l-1-1.333L19,9V3H21z M20,11l3,4V3h2v18H9V3
	h8v12L20,11z M5,5c0-1.103,0.896-2,2-2v18c-0.729,0-1.411,0.195-2,0.537V5z M24,27H7c-1.104,0-2-0.896-2-2s0.896-2,2-2h17V27z"/>
</svg>
