<?xml version="1.0" encoding="iso-8859-1"?>
<!-- Generator: Adobe Illustrator 14.0.0, SVG Export Plug-In . SVG Version: 6.00 Build 43363)  -->
<!DOCTYPE svg PUBLIC "-//W3C//DTD SVG 1.1//EN" "http://www.w3.org/Graphics/SVG/1.1/DTD/svg11.dtd">
<svg version="1.1" id="Layer_1" xmlns="http://www.w3.org/2000/svg" xmlns:xlink="http://www.w3.org/1999/xlink" x="0px" y="0px"
	 width="30px" height="30px" viewBox="0 0 30 30" style="enable-background:new 0 0 30 30;" xml:space="preserve">
<path style="fill:#fff" d="M16,4h-2v4h2V4z M14,26h2v-4h-2V26z M22,14v2h4v-2H22z M8,14H4v2h4V14z M23.485,7.928l-1.414-1.414l-2.829,2.829
	l1.414,1.414L23.485,7.928z M6.515,22.07l1.414,1.414l2.828-2.828l-1.414-1.414L6.515,22.07z M10.758,9.343L7.929,6.514L6.515,7.928
	l2.829,2.829L10.758,9.343z M19.243,20.656l2.828,2.828l1.414-1.414l-2.828-2.828L19.243,20.656z M15,10c-2.762,0-5,2.239-5,5
	c0,2.762,2.238,5,5,5s5-2.238,5-5C20,12.239,17.762,10,15,10z M15,18c-1.657,0-3-1.344-3-3c0-1.657,1.343-3,3-3s3,1.343,3,3
	C18,16.656,16.657,18,15,18z"/>
</svg>
