<?xml version="1.0" encoding="iso-8859-1"?>
<!-- Generator: Adobe Illustrator 14.0.0, SVG Export Plug-In . SVG Version: 6.00 Build 43363)  -->
<!DOCTYPE svg PUBLIC "-//W3C//DTD SVG 1.1//EN" "http://www.w3.org/Graphics/SVG/1.1/DTD/svg11.dtd">
<svg version="1.1" id="Layer_1" xmlns="http://www.w3.org/2000/svg" xmlns:xlink="http://www.w3.org/1999/xlink" x="0px" y="0px"
	 width="30px" height="30px" viewBox="0 0 30 30" style="enable-background:new 0 0 30 30;" xml:space="preserve">
<path style="fill:#fff" d="M16,0h-2v6h2V0z M14,30h2v-6h-2V30z M24,14v2h6v-2H24z M6,14H0v2h6V14z M26.313,5.1l-1.414-1.414l-4.243,4.243l1.415,1.414
	L26.313,5.1z M3.687,24.898l1.414,1.414l4.242-4.242l-1.414-1.414L3.687,24.898z M9.344,7.928L5.101,3.686L3.687,5.1l4.242,4.243
	L9.344,7.928z M20.657,22.07l4.242,4.242l1.414-1.414l-4.242-4.242L20.657,22.07z M15,8c-3.866,0-7,3.134-7,7s3.134,7,7,7
	s7-3.134,7-7S18.866,8,15,8z M15,20c-2.762,0-5-2.238-5-5c0-2.761,2.238-5,5-5s5,2.239,5,5C20,17.762,17.762,20,15,20z"/>
</svg>
