<?xml version="1.0" encoding="iso-8859-1"?>
<!-- Generator: Adobe Illustrator 14.0.0, SVG Export Plug-In . SVG Version: 6.00 Build 43363)  -->
<!DOCTYPE svg PUBLIC "-//W3C//DTD SVG 1.1//EN" "http://www.w3.org/Graphics/SVG/1.1/DTD/svg11.dtd">
<svg version="1.1" id="Layer_1" xmlns="http://www.w3.org/2000/svg" xmlns:xlink="http://www.w3.org/1999/xlink" x="0px" y="0px"
	 width="30px" height="30px" viewBox="0 0 30 30" style="enable-background:new 0 0 30 30;" xml:space="preserve">
<path style="fill:#fff" d="M4,1v28h9v-6h4v6h9V1H4z M24,27h-5v-6h-8v6H6V3h18V27z M13,14H8v5h5V14z M11,17h-1v-1h1V17z M22,14h-5v5h5V14z M20,17h-1v-1
	h1V17z M13,5H8v5h5V5z M11,8h-1V7h1V8z M22,5h-5v5h5V5z M20,8h-1V7h1V8z"/>
</svg>
