<?xml version="1.0" encoding="iso-8859-1"?>
<!-- Generator: Adobe Illustrator 14.0.0, SVG Export Plug-In . SVG Version: 6.00 Build 43363)  -->
<!DOCTYPE svg PUBLIC "-//W3C//DTD SVG 1.1//EN" "http://www.w3.org/Graphics/SVG/1.1/DTD/svg11.dtd">
<svg version="1.1" id="Layer_1" xmlns="http://www.w3.org/2000/svg" xmlns:xlink="http://www.w3.org/1999/xlink" x="0px" y="0px"
	 width="30px" height="30px" viewBox="0 0 30 30" style="enable-background:new 0 0 30 30;" xml:space="preserve">
<path style="fill:#fff" d="M20.834,16.542l-2.959,2.896l-7.313-7.313l2.896-2.959L6.771,1L2.375,5.396C1.328,6.553,1,7.813,1,9
	c0,9.047,10.906,20,20,20c1.188,0,2.447-0.328,3.604-1.375L29,23.229L20.834,16.542z M23.189,26.211C22.615,26.728,21.896,27,21,27
	C13.094,27,3,16.906,3,9c0-0.896,0.272-1.615,0.857-2.262l2.765-2.763l4.153,5.072l-3.026,3.093l10.11,10.11l3.093-3.026
	l5.071,4.152L23.189,26.211z"/>
</svg>
