<?xml version="1.0" encoding="iso-8859-1"?>
<!-- Generator: Adobe Illustrator 14.0.0, SVG Export Plug-In . SVG Version: 6.00 Build 43363)  -->
<!DOCTYPE svg PUBLIC "-//W3C//DTD SVG 1.1//EN" "http://www.w3.org/Graphics/SVG/1.1/DTD/svg11.dtd">
<svg version="1.1" id="Layer_1" xmlns="http://www.w3.org/2000/svg" xmlns:xlink="http://www.w3.org/1999/xlink" x="0px" y="0px"
	 width="30px" height="30px" viewBox="0 0 30 30" style="enable-background:new 0 0 30 30;" xml:space="preserve">
<path style="fill:#fff" d="M23,6l-2-4H9L7,6H0v22h30V6H23z M28,26H2V8h6.236l2-4h9.528l2,4H28V26z M15,10c-3.866,0-7,3.134-7,7s3.134,7,7,7
	s7-3.134,7-7S18.866,10,15,10z M15,22c-2.761,0-5-2.238-5-5c0-2.761,2.239-5,5-5c2.762,0,5,2.239,5,5C20,19.762,17.762,22,15,22z
	 M8,10H4v2h4V10z M15,15c-1.104,0-2,0.896-2,2s0.896,2,2,2s2-0.896,2-2S16.104,15,15,15z"/>
</svg>
