<?xml version="1.0" encoding="iso-8859-1"?>
<!-- Generator: Adobe Illustrator 14.0.0, SVG Export Plug-In . SVG Version: 6.00 Build 43363)  -->
<!DOCTYPE svg PUBLIC "-//W3C//DTD SVG 1.1//EN" "http://www.w3.org/Graphics/SVG/1.1/DTD/svg11.dtd">
<svg version="1.1" id="Layer_1" xmlns="http://www.w3.org/2000/svg" xmlns:xlink="http://www.w3.org/1999/xlink" x="0px" y="0px"
	 width="30px" height="30px" viewBox="0 0 30 30" style="enable-background:new 0 0 30 30;" xml:space="preserve">
<path style="fill:#fff" d="M15,1C7.268,1,1,7.268,1,15c0,7.732,6.268,14,14,14s14-6.268,14-14C29,7.268,22.732,1,15,1z M3,15C3,8.373,8.373,3,15,3
	c2.957,0,5.66,1.075,7.752,2.848L5.848,22.752C4.074,20.66,3,17.957,3,15z M15,27c-2.957,0-5.66-1.074-7.752-2.848L24.152,7.249
	C25.926,9.34,27,12.043,27,15C27,21.627,21.627,27,15,27z"/>
</svg>
