<?xml version="1.0" encoding="iso-8859-1"?>
<!-- Generator: Adobe Illustrator 14.0.0, SVG Export Plug-In . SVG Version: 6.00 Build 43363)  -->
<!DOCTYPE svg PUBLIC "-//W3C//DTD SVG 1.1//EN" "http://www.w3.org/Graphics/SVG/1.1/DTD/svg11.dtd">
<svg version="1.1" id="Layer_1" xmlns="http://www.w3.org/2000/svg" xmlns:xlink="http://www.w3.org/1999/xlink" x="0px" y="0px"
	 width="30px" height="30px" viewBox="0 0 30 30" style="enable-background:new 0 0 30 30;" xml:space="preserve">
<path style="fill:#fff" d="M24.955,12.097C24.501,7.551,20.666,4,16,4c-3.568,0-6.642,2.081-8.097,5.091C7.609,9.037,7.309,9,7,9c-2.761,0-5,2.238-5,5
	c0,0.472,0.086,0.919,0.208,1.352C0.861,16.451,0,18.125,0,20c0,3.314,2.687,6,6,6h6.172l-2-2H6c-2.206,0-4-1.794-4-4
	c0-1.709,1.016-2.875,2.488-3.928C4.281,15.563,4,14.578,4,14c0-1.654,1.346-3,3-3c0.734,0,1.469,0.203,2.041,0.332
	C10.188,8.406,12.359,6,16,6c3.625,0,7.031,2.625,7.113,7.787C27.516,14.078,28,17.672,28,19c0,2.757-1.795,5-4,5h-4.172l-2,2H24
	c3.314,0,6-3.134,6-7C30,15.514,27.813,12.631,24.955,12.097z M14,10v12.188l-4.594-4.594L8,19l7,7l7-7l-1.406-1.406L16,22.188V10
	H14z"/>
</svg>
