<?xml version="1.0" encoding="iso-8859-1"?>
<!-- Generator: Adobe Illustrator 14.0.0, SVG Export Plug-In . SVG Version: 6.00 Build 43363)  -->
<!DOCTYPE svg PUBLIC "-//W3C//DTD SVG 1.1//EN" "http://www.w3.org/Graphics/SVG/1.1/DTD/svg11.dtd">
<svg version="1.1" id="Layer_1" xmlns="http://www.w3.org/2000/svg" xmlns:xlink="http://www.w3.org/1999/xlink" x="0px" y="0px"
	 width="30px" height="30px" viewBox="0 0 30 30" style="enable-background:new 0 0 30 30;" xml:space="preserve">
<path style="fill:#fff" d="M25,11h-4.6L27,4.4L25.6,3L19,9.6V5h-2v8h8V11z M11,9.6L4.4,3L3,4.4L9.6,11H5v2h8V5h-2V9.6z M25,19v-2h-8v8h2v-4.6l6.6,6.6
	l1.4-1.4L20.4,19H25z M5,19h4.6L3,25.6L4.4,27l6.6-6.6V25h2v-8H5V19z"/>
</svg>
