<?xml version="1.0" encoding="iso-8859-1"?>
<!-- Generator: Adobe Illustrator 14.0.0, SVG Export Plug-In . SVG Version: 6.00 Build 43363)  -->
<!DOCTYPE svg PUBLIC "-//W3C//DTD SVG 1.1//EN" "http://www.w3.org/Graphics/SVG/1.1/DTD/svg11.dtd">
<svg version="1.1" id="Layer_1" xmlns="http://www.w3.org/2000/svg" xmlns:xlink="http://www.w3.org/1999/xlink" x="0px" y="0px"
	 width="30px" height="30px" viewBox="0 0 30 30" style="enable-background:new 0 0 30 30;" xml:space="preserve">
<path style="fill:#fff" d="M14.899,6C14.436,3.718,12.419,2,10,2S5.564,3.718,5.101,6H2v2h3.101c0.464,2.282,2.48,4,4.899,4s4.436-1.718,4.899-4H28V6
	H14.899z M10,10c-1.657,0-3-1.343-3-3s1.343-3,3-3s3,1.343,3,3S11.657,10,10,10z M20,18c-2.419,0-4.436,1.718-4.899,4H2v2h13.101
	c0.464,2.282,2.48,4,4.899,4s4.436-1.718,4.899-4H28v-2h-3.101C24.436,19.718,22.419,18,20,18z M20,26c-1.657,0-3-1.343-3-3
	s1.343-3,3-3s3,1.343,3,3S21.657,26,20,26z"/>
</svg>
