<?xml version="1.0" encoding="iso-8859-1"?>
<!-- Generator: Adobe Illustrator 14.0.0, SVG Export Plug-In . SVG Version: 6.00 Build 43363)  -->
<!DOCTYPE svg PUBLIC "-//W3C//DTD SVG 1.1//EN" "http://www.w3.org/Graphics/SVG/1.1/DTD/svg11.dtd">
<svg version="1.1" id="Layer_1" xmlns="http://www.w3.org/2000/svg" xmlns:xlink="http://www.w3.org/1999/xlink" x="0px" y="0px"
	 width="30px" height="30px" viewBox="0 0 30 30" style="enable-background:new 0 0 30 30;" xml:space="preserve">
<path style="fill:#fff" d="M30,14h-4.051C25.474,8.724,21.275,4.526,16,4.05V0h-2v4.05C8.724,4.526,4.526,8.724,4.05,14H0v2h4.05
	c0.476,5.275,4.674,9.474,9.95,9.949V30h2v-4.051c5.275-0.476,9.474-4.674,9.949-9.949H30V14z M16,23.941V20h-2v3.941
	C9.829,23.48,6.52,20.171,6.059,16H10v-2H6.059C6.52,9.829,9.829,6.52,14,6.059V10h2V6.059C20.171,6.52,23.48,9.829,23.941,14H20v2
	h3.941C23.48,20.171,20.171,23.48,16,23.941z"/>
</svg>
