<?xml version="1.0" encoding="iso-8859-1"?>
<!-- Generator: Adobe Illustrator 14.0.0, SVG Export Plug-In . SVG Version: 6.00 Build 43363)  -->
<!DOCTYPE svg PUBLIC "-//W3C//DTD SVG 1.1//EN" "http://www.w3.org/Graphics/SVG/1.1/DTD/svg11.dtd">
<svg version="1.1" id="Layer_1" xmlns="http://www.w3.org/2000/svg" xmlns:xlink="http://www.w3.org/1999/xlink" x="0px" y="0px"
	 width="30px" height="30px" viewBox="0 0 30 30" style="enable-background:new 0 0 30 30;" xml:space="preserve">
<path style="fill:#fff" d="M26,5V1H4v4H2v2h2.167L6,29h18l1.833-22H28V5H26z M6,3h18v2H6V3z M20.651,13h2.675l-0.333,4h-2.342
	C20.873,16.373,21,15.702,21,15S20.873,13.627,20.651,13z M15,19c-2.209,0-4-1.791-4-4s1.791-4,4-4s4,1.791,4,4S17.209,19,15,19z
	 M9.349,17H7.007l-0.333-4h2.675C9.127,13.627,9,14.298,9,15S9.127,16.373,9.349,17z M7.84,27l-0.666-8h3.363
	c1.099,1.225,2.688,2,4.463,2s3.364-0.775,4.463-2h3.363l-0.666,8H7.84z M23.493,11h-4.03C18.364,9.775,16.774,9,15,9
	s-3.364,0.775-4.463,2h-4.03L6.174,7h17.652L23.493,11z"/>
</svg>
