<?xml version="1.0" encoding="iso-8859-1"?>
<!-- Generator: Adobe Illustrator 14.0.0, SVG Export Plug-In . SVG Version: 6.00 Build 43363)  -->
<!DOCTYPE svg PUBLIC "-//W3C//DTD SVG 1.1//EN" "http://www.w3.org/Graphics/SVG/1.1/DTD/svg11.dtd">
<svg version="1.1" id="Layer_1" xmlns="http://www.w3.org/2000/svg" xmlns:xlink="http://www.w3.org/1999/xlink" x="0px" y="0px"
	 width="30px" height="30px" viewBox="0 0 30 30" style="enable-background:new 0 0 30 30;" xml:space="preserve">
<path style="fill:#fff" d="M15,0C6.716,0,0,6.716,0,15s6.716,15,15,15s15-6.716,15-15S23.284,0,15,0z M26.575,9.104l-6.499,2.709
	c-0.479-0.764-1.125-1.409-1.889-1.889l2.709-6.499C23.338,4.671,25.329,6.662,26.575,9.104z M19,15c0,2.209-1.791,4-4,4
	s-4-1.791-4-4s1.791-4,4-4S19,12.791,19,15z M2,15C2,7.82,7.82,2,15,2c1.423,0,2.788,0.236,4.069,0.659l-2.708,6.502
	C15.923,9.06,15.469,9,15,9c-3.313,0-6,2.687-6,6c0,0.469,0.06,0.923,0.161,1.361l-6.502,2.708C2.236,17.788,2,16.423,2,15z
	 M3.425,20.896l6.499-2.709c0.479,0.764,1.125,1.409,1.889,1.889l-2.709,6.499C6.662,25.329,4.671,23.338,3.425,20.896z M15,28
	c-1.423,0-2.788-0.236-4.069-0.659l2.708-6.502C14.077,20.94,14.531,21,15,21c3.313,0,6-2.687,6-6c0-0.469-0.06-0.923-0.161-1.361
	l6.502-2.708C27.764,12.212,28,13.577,28,15C28,22.18,22.18,28,15,28z M15,13c-1.104,0-2,0.896-2,2s0.896,2,2,2s2-0.896,2-2
	S16.104,13,15,13z"/>
</svg>
