<?xml version="1.0" encoding="iso-8859-1"?>
<!-- Generator: Adobe Illustrator 14.0.0, SVG Export Plug-In . SVG Version: 6.00 Build 43363)  -->
<!DOCTYPE svg PUBLIC "-//W3C//DTD SVG 1.1//EN" "http://www.w3.org/Graphics/SVG/1.1/DTD/svg11.dtd">
<svg version="1.1" id="Layer_1" xmlns="http://www.w3.org/2000/svg" xmlns:xlink="http://www.w3.org/1999/xlink" x="0px" y="0px"
	 width="30px" height="30px" viewBox="0 0 30 30" style="enable-background:new 0 0 30 30;" xml:space="preserve">
<path style="fill:#fff" d="M1,14v2h28v-2H1z M15,10c2.209,0,4-1.791,4-4s-1.791-4-4-4s-4,1.791-4,4S12.791,10,15,10z M15,4c1.104,0,2,0.896,2,2
	s-0.896,2-2,2s-2-0.896-2-2S13.896,4,15,4z M15,20c-2.209,0-4,1.791-4,4s1.791,4,4,4s4-1.791,4-4S17.209,20,15,20z M15,26
	c-1.104,0-2-0.896-2-2s0.896-2,2-2s2,0.896,2,2S16.104,26,15,26z"/>
</svg>
