<?xml version="1.0" encoding="iso-8859-1"?>
<!-- Generator: Adobe Illustrator 14.0.0, SVG Export Plug-In . SVG Version: 6.00 Build 43363)  -->
<!DOCTYPE svg PUBLIC "-//W3C//DTD SVG 1.1//EN" "http://www.w3.org/Graphics/SVG/1.1/DTD/svg11.dtd">
<svg version="1.1" id="Layer_1" xmlns="http://www.w3.org/2000/svg" xmlns:xlink="http://www.w3.org/1999/xlink" x="0px" y="0px"
	 width="30px" height="30px" viewBox="0 0 30 30" style="enable-background:new 0 0 30 30;" xml:space="preserve">
<path style="fill:#fff" d="M0,6v18h30V6H0z M10.742,22H2V8h8.742C9.672,9.803,9,12.262,9,15S9.672,20.197,10.742,22z M16.821,22h-3.643
	C11.968,20.663,11,18.1,11,15s0.968-5.663,2.179-7h3.643C18.032,9.337,19,11.9,19,15S18.032,20.663,16.821,22z M28,22h-8.742
	C20.328,20.197,21,17.738,21,15s-0.672-5.197-1.742-7H28V22z M24,17c1.104,0,2-0.895,2-2s-0.896-2-2-2s-2,0.895-2,2S22.896,17,24,17
	z M6,13c-1.104,0-2,0.895-2,2s0.896,2,2,2s2-0.895,2-2S7.104,13,6,13z"/>
</svg>
