<?xml version="1.0" encoding="iso-8859-1"?>
<!-- Generator: Adobe Illustrator 14.0.0, SVG Export Plug-In . SVG Version: 6.00 Build 43363)  -->
<!DOCTYPE svg PUBLIC "-//W3C//DTD SVG 1.1//EN" "http://www.w3.org/Graphics/SVG/1.1/DTD/svg11.dtd">
<svg version="1.1" id="Layer_1" xmlns="http://www.w3.org/2000/svg" xmlns:xlink="http://www.w3.org/1999/xlink" x="0px" y="0px"
	 width="30px" height="30px" viewBox="0 0 30 30" style="enable-background:new 0 0 30 30;" xml:space="preserve">
<path style="fill:#fff" d="M24,1c-2.21,0-4,1.79-4,4v12l2,1v8c0,1.657,1.343,3,3,3s3-1.343,3-3V5C28,2.79,26.21,1,24,1z M26,26c0,0.552-0.448,1-1,1
	s-1-0.448-1-1v-9.236l-2-1V5c0-1.103,0.897-2,2-2s2,0.897,2,2V26z M10,6L8,1L6,6L3,1L2,12c0,1.479,1.208,2.769,3,3.461V26
	c0,1.657,1.343,3,3,3s3-1.343,3-3V15.461c1.792-0.692,3-1.981,3-3.461L13,1L10,6z M9,14.09V26c0,0.552-0.448,1-1,1s-1-0.448-1-1
	V14.09c-2-0.637-3.031-1.465-2.997-2.029l0.435-4.778l1.922,3.204L8,6.385l1.641,4.102l1.922-3.204l0.435,4.778
	C12.031,12.625,11,13.453,9,14.09z"/>
</svg>
