<?xml version="1.0" encoding="iso-8859-1"?>
<!-- Generator: Adobe Illustrator 14.0.0, SVG Export Plug-In . SVG Version: 6.00 Build 43363)  -->
<!DOCTYPE svg PUBLIC "-//W3C//DTD SVG 1.1//EN" "http://www.w3.org/Graphics/SVG/1.1/DTD/svg11.dtd">
<svg version="1.1" id="Layer_1" xmlns="http://www.w3.org/2000/svg" xmlns:xlink="http://www.w3.org/1999/xlink" x="0px" y="0px"
	 width="30px" height="30px" viewBox="0 0 30 30" style="enable-background:new 0 0 30 30;" xml:space="preserve">
<path style="fill:#fff" d="M20,1H10C8.344,1,7,2.343,7,4s1.344,3,3,3v17c0,2.762,2.238,5,5,5s5-2.238,5-5V7c1.656,0,3-1.343,3-3S21.656,1,20,1z M15,27
	c-1.654,0-3-1.346-3-3V13h6v2h-2v2h2v2h-2v2h2v3C18,25.654,16.654,27,15,27z M18,11h-6V7h6V11z M20,5H10C9.449,5,9,4.552,9,4
	s0.449-1,1-1h10c0.551,0,1,0.448,1,1S20.551,5,20,5z"/>
</svg>
