<?xml version="1.0" encoding="iso-8859-1"?>
<!-- Generator: Adobe Illustrator 14.0.0, SVG Export Plug-In . SVG Version: 6.00 Build 43363)  -->
<!DOCTYPE svg PUBLIC "-//W3C//DTD SVG 1.1//EN" "http://www.w3.org/Graphics/SVG/1.1/DTD/svg11.dtd">
<svg version="1.1" id="Layer_1" xmlns="http://www.w3.org/2000/svg" xmlns:xlink="http://www.w3.org/1999/xlink" x="0px" y="0px"
	 width="30px" height="30px" viewBox="0 0 30 30" style="enable-background:new 0 0 30 30;" xml:space="preserve">
<path style="fill:#fff" d="M21,1c-3.063,0-5,1.594-6,2.688C14,2.594,12.063,1,9,1C4.582,1,1,4.582,1,9c0,7.266,11.969,18.016,14,20
	c2.031-1.984,14-12.734,14-20C29,4.582,25.418,1,21,1z M15,26.231C5.105,16.686,3,11.599,3,9c0-3.309,2.691-6,6-6
	c3.297,0,4.516,2.141,6,3.641C16.484,5.141,17.703,3,21,3c3.309,0,6,2.691,6,6C27,11.599,24.895,16.686,15,26.231z"/>
</svg>
