<?xml version="1.0" encoding="iso-8859-1"?>
<!-- Generator: Adobe Illustrator 14.0.0, SVG Export Plug-In . SVG Version: 6.00 Build 43363)  -->
<!DOCTYPE svg PUBLIC "-//W3C//DTD SVG 1.1//EN" "http://www.w3.org/Graphics/SVG/1.1/DTD/svg11.dtd">
<svg version="1.1" id="Layer_1" xmlns="http://www.w3.org/2000/svg" xmlns:xlink="http://www.w3.org/1999/xlink" x="0px" y="0px"
	 width="30px" height="30px" viewBox="0 0 30 30" style="enable-background:new 0 0 30 30;" xml:space="preserve">
<path style="fill:#fff" d="M15,8c-3.866,0-7,3.134-7,7s3.134,7,7,7s7-3.134,7-7S18.866,8,15,8z M15,20c-2.762,0-5-2.238-5-5s2.238-5,5-5s5,2.238,5,5
	S17.762,20,15,20z M30,15c0-2.245-1.488-4.121-3.525-4.754c0.993-1.887,0.719-4.266-0.868-5.854
	c-1.587-1.587-3.966-1.861-5.854-0.869C19.12,1.488,17.244,0,15,0s-4.12,1.488-4.753,3.523C8.359,2.531,5.98,2.806,4.394,4.393
	C2.807,5.98,2.532,8.359,3.525,10.246C1.488,10.879,0,12.755,0,15c0,2.243,1.488,4.12,3.523,4.753
	c-0.992,1.887-0.717,4.267,0.869,5.853c1.587,1.587,3.967,1.861,5.854,0.869C10.879,28.511,12.756,30,15,30s4.121-1.489,4.754-3.525
	c1.887,0.992,4.267,0.718,5.854-0.869c1.586-1.586,1.861-3.966,0.869-5.853C28.512,19.12,30,17.244,30,15z M25.881,17.844
	l-2.297,0.714l1.121,2.128c0.617,1.173,0.411,2.584-0.514,3.508c-0.968,0.968-2.488,1.104-3.508,0.513l-2.127-1.118l-0.713,2.295
	C17.449,27.149,16.307,28,15,28s-2.449-0.851-2.844-2.117l-0.713-2.295l-2.127,1.118c-1.02,0.591-2.54,0.455-3.508-0.513
	c-0.925-0.924-1.131-2.335-0.514-3.508l1.121-2.128l-2.297-0.714C2.852,17.45,2,16.308,2,15s0.852-2.45,2.119-2.844l2.297-0.714
	L5.295,9.314C4.678,8.142,4.884,6.73,5.809,5.807c0.968-0.968,2.488-1.104,3.508-0.513l2.127,1.118l0.713-2.295
	C12.551,2.851,13.693,2,15,2s2.449,0.851,2.844,2.117l0.713,2.295l2.127-1.118c1.02-0.591,2.54-0.455,3.508,0.513
	c0.925,0.924,1.131,2.335,0.514,3.508l-1.121,2.128l2.297,0.714C27.148,12.55,28,13.692,28,15S27.148,17.45,25.881,17.844z"/>
</svg>
