<?xml version="1.0" encoding="iso-8859-1"?>
<!-- Generator: Adobe Illustrator 14.0.0, SVG Export Plug-In . SVG Version: 6.00 Build 43363)  -->
<!DOCTYPE svg PUBLIC "-//W3C//DTD SVG 1.1//EN" "http://www.w3.org/Graphics/SVG/1.1/DTD/svg11.dtd">
<svg version="1.1" id="Layer_1" xmlns="http://www.w3.org/2000/svg" xmlns:xlink="http://www.w3.org/1999/xlink" x="0px" y="0px"
	 width="30px" height="30px" viewBox="0 0 30 30" style="enable-background:new 0 0 30 30;" xml:space="preserve">
<path style="fill:#fff" d="M15,4l-2-2H1v26h28V4H15z M27,26H3V10h24V26z M27,8H3V4h9.172l2,2H27V8z M14,22c1.022,0,1.971-0.31,2.764-0.836L19.6,24
	l1.4-1.4l-2.836-2.836C18.69,18.972,19,18.022,19,17c0-2.762-2.238-5-5-5c-2.761,0-5,2.238-5,5S11.239,22,14,22z M14,14
	c1.657,0,3,1.343,3,3s-1.343,3-3,3s-3-1.343-3-3S12.343,14,14,14z"/>
</svg>
