<?xml version="1.0" encoding="iso-8859-1"?>
<!-- Generator: Adobe Illustrator 14.0.0, SVG Export Plug-In . SVG Version: 6.00 Build 43363)  -->
<!DOCTYPE svg PUBLIC "-//W3C//DTD SVG 1.1//EN" "http://www.w3.org/Graphics/SVG/1.1/DTD/svg11.dtd">
<svg version="1.1" id="Layer_1" xmlns="http://www.w3.org/2000/svg" xmlns:xlink="http://www.w3.org/1999/xlink" x="0px" y="0px"
	 width="30px" height="30px" viewBox="0 0 30 30" style="enable-background:new 0 0 30 30;" xml:space="preserve">
<path style="fill:#fff" d="M4,14h10V6H4V14z M6,8h6v4H6V8z M23.531,2L20,5.531l3,3.016V10c0,1.953,1.516,4,4,4h1v10c0,1.104-0.896,2-2,2s-2-0.896-2-2
	v-4c0-2.2-1.8-4-4-4h-2V6c0-2.2-1.8-4-4-4H4C1.8,2,0,3.8,0,6v22h18V18h2c1.103,0,2,0.897,2,2v4c0,2.209,1.791,4,4,4s4-1.791,4-4
	V8.453L23.531,2z M16,26H2V6c0-1.103,0.897-2,2-2h10c1.103,0,2,0.897,2,2V26z M28,12h-1c-1.38,0-2-1.17-2-2V7.722l-2.175-2.187
	l0.708-0.708L28,9.283V12z"/>
</svg>
