<?xml version="1.0" encoding="iso-8859-1"?>
<!-- Generator: Adobe Illustrator 14.0.0, SVG Export Plug-In . SVG Version: 6.00 Build 43363)  -->
<!DOCTYPE svg PUBLIC "-//W3C//DTD SVG 1.1//EN" "http://www.w3.org/Graphics/SVG/1.1/DTD/svg11.dtd">
<svg version="1.1" id="Layer_1" xmlns="http://www.w3.org/2000/svg" xmlns:xlink="http://www.w3.org/1999/xlink" x="0px" y="0px"
	 width="30px" height="30px" viewBox="0 0 30 30" style="enable-background:new 0 0 30 30;" xml:space="preserve">
<path style="fill:#fff" d="M30,14h-1.09c-0.478-2.836-2.938-5-5.91-5c-2.4,0-4.465,1.413-5.425,3.449C16.821,12.172,15.95,12,15,12
	s-1.821,0.172-2.575,0.449C11.465,10.413,9.4,9,7,9c-2.972,0-5.433,2.164-5.91,5H0v2h1.09c0.478,2.836,2.938,5,5.91,5
	c3.313,0,6-2.687,6-6c0-0.209-0.011-0.416-0.032-0.621C13.47,14.174,14.149,14,15,14c0.854,0,1.534,0.158,2.036,0.353
	C17.014,14.565,17,14.781,17,15c0,3.313,2.687,6,6,6c2.972,0,5.433-2.164,5.91-5H30V14z M7,19c-2.209,0-4-1.791-4-4s1.791-4,4-4
	s4,1.791,4,4S9.209,19,7,19z M23,19c-2.209,0-4-1.791-4-4s1.791-4,4-4s4,1.791,4,4S25.209,19,23,19z"/>
</svg>
