<?xml version="1.0" encoding="iso-8859-1"?>
<!-- Generator: Adobe Illustrator 14.0.0, SVG Export Plug-In . SVG Version: 6.00 Build 43363)  -->
<!DOCTYPE svg PUBLIC "-//W3C//DTD SVG 1.1//EN" "http://www.w3.org/Graphics/SVG/1.1/DTD/svg11.dtd">
<svg version="1.1" id="Layer_1" xmlns="http://www.w3.org/2000/svg" xmlns:xlink="http://www.w3.org/1999/xlink" x="0px" y="0px"
	 width="30px" height="30px" viewBox="0 0 30 30" style="enable-background:new 0 0 30 30;" xml:space="preserve">
<path style="fill:#fff" d="M30,22c0-1.774-0.775-3.364-2-4.463V14c0-7.18-5.82-13-13-13S2,6.82,2,14v3.537C0.775,18.636,0,20.226,0,22
	c0,3.235,2.563,5.865,5.769,5.988C6.318,28.604,7.109,29,8,29c1.657,0,3-1.344,3-3v-8c0-1.656-1.343-3-3-3
	c-0.891,0-1.682,0.396-2.231,1.012C5.15,16.035,4.557,16.151,4,16.349V14C4,7.925,8.925,3,15,3s11,4.925,11,11v2.349
	c-0.557-0.197-1.15-0.313-1.77-0.337C23.682,15.396,22.891,15,22,15c-1.656,0-3,1.344-3,3v8c0,1.656,1.344,3,3,3
	c0.891,0,1.682-0.396,2.23-1.012C27.437,27.865,30,25.235,30,22z M2,22c0-1.861,1.278-3.412,3-3.858v7.717
	C3.278,25.412,2,23.861,2,22z M7,18c0-0.551,0.449-1,1-1s1,0.449,1,1v8c0,0.551-0.449,1-1,1s-1-0.449-1-1V18z M23,26
	c0,0.551-0.449,1-1,1s-1-0.449-1-1v-8c0-0.551,0.449-1,1-1s1,0.449,1,1V26z M25,25.858v-7.717c1.723,0.446,3,1.997,3,3.858
	S26.723,25.412,25,25.858z"/>
</svg>
