<?xml version="1.0" encoding="iso-8859-1"?>
<!-- Generator: Adobe Illustrator 14.0.0, SVG Export Plug-In . SVG Version: 6.00 Build 43363)  -->
<!DOCTYPE svg PUBLIC "-//W3C//DTD SVG 1.1//EN" "http://www.w3.org/Graphics/SVG/1.1/DTD/svg11.dtd">
<svg version="1.1" id="Layer_1" xmlns="http://www.w3.org/2000/svg" xmlns:xlink="http://www.w3.org/1999/xlink" x="0px" y="0px"
	 width="30px" height="30px" viewBox="0 0 30 30" style="enable-background:new 0 0 30 30;" xml:space="preserve">
<path style="fill:#fff" d="M21,1c-1.902,0-3.369,0.615-4.447,1.343L15,7l2,2l-3,3v-2l-2-2l1.587-5.556C12.496,1.674,10.989,1,9,1C4.582,1,1,4.582,1,9
	c0,7.266,11.969,18.016,14,20c2.031-1.984,14-12.734,14-20C29,4.582,25.418,1,21,1z M15,26.231C5.105,16.686,3,11.599,3,9
	c0-3.309,2.691-6,6-6c0.788,0,1.534,0.141,2.229,0.42L9.753,8.582L12,10.828v6L19.828,9l-2.54-2.54l0.929-2.786
	C19.063,3.227,19.997,3,21,3c3.309,0,6,2.691,6,6C27,11.599,24.895,16.686,15,26.231z"/>
</svg>
