<?xml version="1.0" encoding="iso-8859-1"?>
<!-- Generator: Adobe Illustrator 14.0.0, SVG Export Plug-In . SVG Version: 6.00 Build 43363)  -->
<!DOCTYPE svg PUBLIC "-//W3C//DTD SVG 1.1//EN" "http://www.w3.org/Graphics/SVG/1.1/DTD/svg11.dtd">
<svg version="1.1" id="Layer_1" xmlns="http://www.w3.org/2000/svg" xmlns:xlink="http://www.w3.org/1999/xlink" x="0px" y="0px"
	 width="30px" height="30px" viewBox="0 0 30 30" style="enable-background:new 0 0 30 30;" xml:space="preserve">
<path style="fill:#fff" d="M15,1C10.531,1,6.563,3.101,4,6.36V3H2v8h8V9H4.625C6.7,5.417,10.563,3,15,3c6.627,0,12,5.373,12,12s-5.373,12-12,12
	S3,21.627,3,15H1c0,7.732,6.268,14,14,14s14-6.268,14-14S22.732,1,15,1z M16,5h-2v9H7v2h9V5z"/>
</svg>
