<?xml version="1.0" encoding="iso-8859-1"?>
<!-- Generator: Adobe Illustrator 14.0.0, SVG Export Plug-In . SVG Version: 6.00 Build 43363)  -->
<!DOCTYPE svg PUBLIC "-//W3C//DTD SVG 1.1//EN" "http://www.w3.org/Graphics/SVG/1.1/DTD/svg11.dtd">
<svg version="1.1" id="Layer_1" xmlns="http://www.w3.org/2000/svg" xmlns:xlink="http://www.w3.org/1999/xlink" x="0px" y="0px"
	 width="30px" height="30px" viewBox="0 0 30 30" style="enable-background:new 0 0 30 30;" xml:space="preserve">
<path style="fill:#fff" d="M16,16V5.813l3.594,3.594L21,8l-6-6L9,8l1.406,1.406L14,5.813V16H16z M24,2h-6.172l2,2h2.663l3.429,12H19
	c0,2.209-1.791,4-4,4s-4-1.791-4-4H4.08L7.509,4h2.663l2-2H6L2,16v12h26V16L24,2z M26,26H4v-8h5.349c0.825,2.328,3.04,4,5.651,4
	s4.826-1.672,5.651-4H26V26z"/>
</svg>
