<?xml version="1.0" encoding="iso-8859-1"?>
<!-- Generator: Adobe Illustrator 14.0.0, SVG Export Plug-In . SVG Version: 6.00 Build 43363)  -->
<!DOCTYPE svg PUBLIC "-//W3C//DTD SVG 1.1//EN" "http://www.w3.org/Graphics/SVG/1.1/DTD/svg11.dtd">
<svg version="1.1" id="Layer_1" xmlns="http://www.w3.org/2000/svg" xmlns:xlink="http://www.w3.org/1999/xlink" x="0px" y="0px"
	 width="30px" height="30px" viewBox="0 0 30 30" style="enable-background:new 0 0 30 30;" xml:space="preserve">
<path style="fill:#fff" d="M29,8L15,1L1,8l14,7L29,8z M15,3.236L24.528,8L15,12.764L5.472,8L15,3.236z M22,13.736L24.528,15L15,19.764L5.472,15
	L8,13.736l-2.236-1.118L1,15l14,7l14-7l-4.764-2.382L22,13.736z M22,20.736L24.528,22L15,26.764L5.472,22L8,20.736l-2.236-1.118
	L1,22l14,7l14-7l-4.764-2.382L22,20.736z"/>
</svg>
