<?xml version="1.0" encoding="iso-8859-1"?>
<!-- Generator: Adobe Illustrator 14.0.0, SVG Export Plug-In . SVG Version: 6.00 Build 43363)  -->
<!DOCTYPE svg PUBLIC "-//W3C//DTD SVG 1.1//EN" "http://www.w3.org/Graphics/SVG/1.1/DTD/svg11.dtd">
<svg version="1.1" id="Layer_1" xmlns="http://www.w3.org/2000/svg" xmlns:xlink="http://www.w3.org/1999/xlink" x="0px" y="0px"
	 width="30px" height="30px" viewBox="0 0 30 30" style="enable-background:new 0 0 30 30;" xml:space="preserve">
<path style="fill:#fff" d="M7,16h22v-2H7V16z M7,6v2h22V6H7z M7,24h22v-2H7V24z M3,5C1.896,5,1,5.896,1,7s0.896,2,2,2s2-0.896,2-2S4.104,5,3,5z M3,13
	c-1.104,0-2,0.896-2,2s0.896,2,2,2s2-0.896,2-2S4.104,13,3,13z M3,21c-1.104,0-2,0.896-2,2s0.896,2,2,2s2-0.896,2-2S4.104,21,3,21z"
	/>
</svg>
