<?xml version="1.0" encoding="iso-8859-1"?>
<!-- Generator: Adobe Illustrator 14.0.0, SVG Export Plug-In . SVG Version: 6.00 Build 43363)  -->
<!DOCTYPE svg PUBLIC "-//W3C//DTD SVG 1.1//EN" "http://www.w3.org/Graphics/SVG/1.1/DTD/svg11.dtd">
<svg version="1.1" id="Layer_1" xmlns="http://www.w3.org/2000/svg" xmlns:xlink="http://www.w3.org/1999/xlink" x="0px" y="0px"
	 width="30px" height="30px" viewBox="0 0 30 30" style="enable-background:new 0 0 30 30;" xml:space="preserve">
<path style="fill:#fff" d="M15,0C8.925,0,4,4.925,4,11c0,7.539,8.709,17.125,11,19c2.291-1.875,11-11.461,11-19C26,4.925,21.075,0,15,0z M15,27.258
	C11.955,24.139,6,16.709,6,11c0-4.963,4.037-9,9-9s9,4.037,9,9C24,16.709,18.045,24.139,15,27.258z M16,6h-2v4h-4v2h4v4h2v-4h4v-2
	h-4V6z"/>
</svg>
