<?xml version="1.0" encoding="iso-8859-1"?>
<!-- Generator: Adobe Illustrator 14.0.0, SVG Export Plug-In . SVG Version: 6.00 Build 43363)  -->
<!DOCTYPE svg PUBLIC "-//W3C//DTD SVG 1.1//EN" "http://www.w3.org/Graphics/SVG/1.1/DTD/svg11.dtd">
<svg version="1.1" id="Layer_1" xmlns="http://www.w3.org/2000/svg" xmlns:xlink="http://www.w3.org/1999/xlink" x="0px" y="0px"
	 width="30px" height="30px" viewBox="0 0 30 30" style="enable-background:new 0 0 30 30;" xml:space="preserve">
<path style="fill:#fff" d="M20,2c-2.063,0-4.317,0.917-5.7,2.3l-10,10C2.894,15.706,2,17.844,2,20c0,4.418,3.582,8,8,8c2.063,0,4.317-0.917,5.7-2.3
	l10-10c1.406-1.406,2.3-3.544,2.3-5.7C28,5.582,24.418,2,20,2z M14.286,24.286C13.276,25.295,11.515,26,10,26c-3.309,0-6-2.691-6-6
	c0-1.587,0.657-3.229,1.714-4.286l4.3-4.3l8.572,8.572L14.286,24.286z M24.286,14.286l-4.3,4.3l-8.572-8.572l4.3-4.3
	C16.724,4.705,18.485,4,20,4c3.309,0,6,2.691,6,6C26,11.587,25.343,13.229,24.286,14.286z"/>
</svg>
