<?xml version="1.0" encoding="iso-8859-1"?>
<!-- Generator: Adobe Illustrator 14.0.0, SVG Export Plug-In . SVG Version: 6.00 Build 43363)  -->
<!DOCTYPE svg PUBLIC "-//W3C//DTD SVG 1.1//EN" "http://www.w3.org/Graphics/SVG/1.1/DTD/svg11.dtd">
<svg version="1.1" id="Layer_1" xmlns="http://www.w3.org/2000/svg" xmlns:xlink="http://www.w3.org/1999/xlink" x="0px" y="0px"
	 width="30px" height="30px" viewBox="0 0 30 30" style="enable-background:new 0 0 30 30;" xml:space="preserve">
<path style="fill:#fff" d="M9,21h12V9H9V21z M11,11h8v8h-8V11z M12,1h-2v6h2V1z M20,1h-2v6h2V1z M16,1h-2v6h2V1z M10,29h2v-6h-2V29z M18,29h2v-6h-2V29
	z M14,29h2v-6h-2V29z M23,10v2h6v-2H23z M23,20h6v-2h-6V20z M23,16h6v-2h-6V16z M1,12h6v-2H1V12z M1,20h6v-2H1V20z M1,16h6v-2H1V16z
	"/>
</svg>
