<?xml version="1.0" encoding="iso-8859-1"?>
<!-- Generator: Adobe Illustrator 14.0.0, SVG Export Plug-In . SVG Version: 6.00 Build 43363)  -->
<!DOCTYPE svg PUBLIC "-//W3C//DTD SVG 1.1//EN" "http://www.w3.org/Graphics/SVG/1.1/DTD/svg11.dtd">
<svg version="1.1" id="Layer_1" xmlns="http://www.w3.org/2000/svg" xmlns:xlink="http://www.w3.org/1999/xlink" x="0px" y="0px"
	 width="30px" height="30px" viewBox="0 0 30 30" style="enable-background:new 0 0 30 30;" xml:space="preserve">
<path style="fill:#fff" d="M26.6,2L21,7.6V6c0-3.313-2.687-6-6-6S9,2.687,9,6v8c0,1.555,0.597,2.967,1.566,4.032l-1.414,1.415
	C7.821,18.019,7,16.107,7,14v-4H5v4c0,2.66,1.053,5.063,2.746,6.854L2,26.6L3.4,28L28,3.4L26.6,2z M19,9.6l-7.008,7.008
	C11.383,15.905,11,15,11,14V6c0-2.205,1.794-4,4-4s4,1.795,4,4V9.6z M23,11.229V14c0,4.418-3.582,8-8,8
	c-0.838,0-1.645-0.13-2.402-0.368l-1.548,1.547c0.921,0.397,1.91,0.667,2.95,0.771V28H7v2h16v-2h-7v-4.051
	c5.053-0.502,9-4.764,9-9.949v-4h-0.771L23,11.229z M16.538,17.69l-2.262,2.262C14.514,19.98,14.755,20,15,20c3.313,0,6-2.687,6-6
	v-0.771l-2.31,2.31C18.285,16.508,17.508,17.285,16.538,17.69z"/>
</svg>
