<?xml version="1.0" encoding="iso-8859-1"?>
<!-- Generator: Adobe Illustrator 14.0.0, SVG Export Plug-In . SVG Version: 6.00 Build 43363)  -->
<!DOCTYPE svg PUBLIC "-//W3C//DTD SVG 1.1//EN" "http://www.w3.org/Graphics/SVG/1.1/DTD/svg11.dtd">
<svg version="1.1" id="Layer_1" xmlns="http://www.w3.org/2000/svg" xmlns:xlink="http://www.w3.org/1999/xlink" x="0px" y="0px"
	 width="30px" height="30px" viewBox="0 0 30 30" style="enable-background:new 0 0 30 30;" xml:space="preserve">
<path style="fill:#fff" d="M0,3v24h30V3H0z M13.179,5h3.643C18.031,6.337,19,8.9,19,12s-0.969,5.663-2.179,7h-3.643C11.968,17.663,11,15.1,11,12
	S11.968,6.337,13.179,5z M2,5h8.742C9.672,6.803,9,9.262,9,12s0.672,5.197,1.742,7H2V5z M28,25H2v-1h26V25z M28,22H2v-1h26V22z
	 M28,19h-8.742C20.328,17.197,21,14.738,21,12s-0.672-5.197-1.742-7H28V19z M24,14c1.104,0,2-0.895,2-2s-0.896-2-2-2s-2,0.895-2,2
	S22.896,14,24,14z M6,10c-1.104,0-2,0.895-2,2s0.896,2,2,2s2-0.895,2-2S7.104,10,6,10z"/>
</svg>
