<?xml version="1.0" encoding="iso-8859-1"?>
<!-- Generator: Adobe Illustrator 14.0.0, SVG Export Plug-In . SVG Version: 6.00 Build 43363)  -->
<!DOCTYPE svg PUBLIC "-//W3C//DTD SVG 1.1//EN" "http://www.w3.org/Graphics/SVG/1.1/DTD/svg11.dtd">
<svg version="1.1" id="Layer_1" xmlns="http://www.w3.org/2000/svg" xmlns:xlink="http://www.w3.org/1999/xlink" x="0px" y="0px"
	 width="30px" height="30px" viewBox="0 0 30 30" style="enable-background:new 0 0 30 30;" xml:space="preserve">
<path style="fill:#fff" d="M15,1C9.478,1,5,5.478,5,11v8c0,5.522,4.478,10,10,10s10-4.478,10-10v-8C25,5.478,20.522,1,15,1z M23,11h-7V3.069
	C19.939,3.564,23,6.928,23,11z M14,3.069V11H7C7,6.928,10.061,3.564,14,3.069z M15,27c-4.411,0-8-3.589-8-8v-6h16v6
	C23,23.411,19.411,27,15,27z"/>
</svg>
