<?xml version="1.0" encoding="iso-8859-1"?>
<!-- Generator: Adobe Illustrator 14.0.0, SVG Export Plug-In . SVG Version: 6.00 Build 43363)  -->
<!DOCTYPE svg PUBLIC "-//W3C//DTD SVG 1.1//EN" "http://www.w3.org/Graphics/SVG/1.1/DTD/svg11.dtd">
<svg version="1.1" id="Layer_1" xmlns="http://www.w3.org/2000/svg" xmlns:xlink="http://www.w3.org/1999/xlink" x="0px" y="0px"
	 width="30px" height="30px" viewBox="0 0 30 30" style="enable-background:new 0 0 30 30;" xml:space="preserve">
<polygon points="24,9 22.594,10.406 26.188,14 16,14 16,3.813 19.594,7.406 21,6 15,0 9,6 10.406,7.406 14,3.813 14,14 3.813,14 
	7.406,10.406 6,9 0,15 6,21 7.406,19.594 3.813,16 14,16 14,26.188 10.406,22.594 9,24 15,30 21,24 19.594,22.594 16,26.188 16,16 
	26.188,16 22.594,19.594 24,21 30,15 "/>
</svg>
