<?xml version="1.0" encoding="iso-8859-1"?>
<!-- Generator: Adobe Illustrator 14.0.0, SVG Export Plug-In . SVG Version: 6.00 Build 43363)  -->
<!DOCTYPE svg PUBLIC "-//W3C//DTD SVG 1.1//EN" "http://www.w3.org/Graphics/SVG/1.1/DTD/svg11.dtd">
<svg version="1.1" id="Layer_1" xmlns="http://www.w3.org/2000/svg" xmlns:xlink="http://www.w3.org/1999/xlink" x="0px" y="0px"
	 width="30px" height="30px" viewBox="0 0 30 30" style="enable-background:new 0 0 30 30;" xml:space="preserve">
<path style="fill:#fff" d="M4,2v26h22V2H4z M24,26H6V4h18V26z M22,6H8v6h14V6z M20,10H10V8h10V10z M15,14c-2.762,0-5,2.238-5,5s2.238,5,5,5
	s5-2.238,5-5S17.762,14,15,14z M15,22c-1.656,0-3-1.343-3-3s1.344-3,3-3s3,1.343,3,3S16.656,22,15,22z"/>
</svg>
