<?xml version="1.0" encoding="iso-8859-1"?>
<!-- Generator: Adobe Illustrator 14.0.0, SVG Export Plug-In . SVG Version: 6.00 Build 43363)  -->
<!DOCTYPE svg PUBLIC "-//W3C//DTD SVG 1.1//EN" "http://www.w3.org/Graphics/SVG/1.1/DTD/svg11.dtd">
<svg version="1.1" id="Layer_1" xmlns="http://www.w3.org/2000/svg" xmlns:xlink="http://www.w3.org/1999/xlink" x="0px" y="0px"
	 width="30px" height="30px" viewBox="0 0 30 30" style="enable-background:new 0 0 30 30;" xml:space="preserve">
<path style="fill:#fff" d="M17,2H3v26h10v-6h4c5.523,0,10-4.478,10-10S22.523,2,17,2z M17,20h-6v6H5V4h12c4.411,0,8,3.589,8,8S21.411,20,17,20z M17,8
	h-6v8h6c2.209,0,4-1.791,4-4S19.209,8,17,8z M17,14h-4v-4h4c1.104,0,2,0.897,2,2S18.104,14,17,14z"/>
</svg>
