<?xml version="1.0" encoding="iso-8859-1"?>
<!-- Generator: Adobe Illustrator 14.0.0, SVG Export Plug-In . SVG Version: 6.00 Build 43363)  -->
<!DOCTYPE svg PUBLIC "-//W3C//DTD SVG 1.1//EN" "http://www.w3.org/Graphics/SVG/1.1/DTD/svg11.dtd">
<svg version="1.1" id="Layer_1" xmlns="http://www.w3.org/2000/svg" xmlns:xlink="http://www.w3.org/1999/xlink" x="0px" y="0px"
	 width="30px" height="30px" viewBox="0 0 30 30" style="enable-background:new 0 0 30 30;" xml:space="preserve">
<path style="fill:#fff" d="M25,20c0-2.615-1.575-4.929-4-6.389V4c0-2.2-1.8-4-4-4h-4c-2.2,0-4,1.8-4,4v9.611C6.575,15.071,5,17.385,5,20h9v10h2V20H25z
	 M11,14.741V4c0-1.103,0.897-2,2-2h4c1.104,0,2,0.897,2,2v10.741c1.828,1.04,2.719,1.712,3.534,3.259H7.466
	C8.281,16.453,9.172,15.781,11,14.741z"/>
</svg>
