<?xml version="1.0" encoding="iso-8859-1"?>
<!-- Generator: Adobe Illustrator 14.0.0, SVG Export Plug-In . SVG Version: 6.00 Build 43363)  -->
<!DOCTYPE svg PUBLIC "-//W3C//DTD SVG 1.1//EN" "http://www.w3.org/Graphics/SVG/1.1/DTD/svg11.dtd">
<svg version="1.1" id="Layer_1" xmlns="http://www.w3.org/2000/svg" xmlns:xlink="http://www.w3.org/1999/xlink" x="0px" y="0px"
	 width="30px" height="30px" viewBox="0 0 30 30" style="enable-background:new 0 0 30 30;" xml:space="preserve">
<path style="fill:#fff" d="M23,1h-2v19.28C19.938,19.487,18.539,19,17,19c-3.313,0-6,2.238-6,5s2.687,5,6,5s6-2.238,6-5V4.565
	c0.094,0.669,4,2.388,4,6.435c0,2.139-1.107,3.59-1.777,4.272L26.311,17C26.563,16.766,29,14.672,29,11C29,4.938,23,3.547,23,1z
	 M17,27c-2.168,0-4-1.374-4-3s1.832-3,4-3s4,1.374,4,3S19.168,27,17,27z M19,3H1v2h18V3z M19,9H1v2h18V9z M19,15H1v2h18V15z"/>
</svg>
