<?xml version="1.0" encoding="iso-8859-1"?>
<!-- Generator: Adobe Illustrator 14.0.0, SVG Export Plug-In . SVG Version: 6.00 Build 43363)  -->
<!DOCTYPE svg PUBLIC "-//W3C//DTD SVG 1.1//EN" "http://www.w3.org/Graphics/SVG/1.1/DTD/svg11.dtd">
<svg version="1.1" id="Layer_1" xmlns="http://www.w3.org/2000/svg" xmlns:xlink="http://www.w3.org/1999/xlink" x="0px" y="0px"
	 width="30px" height="30px" viewBox="0 0 30 30" style="enable-background:new 0 0 30 30;" xml:space="preserve">
<path style="fill:#fff" d="M22,0H8C3.6,0,0,3.6,0,8v14c0,4.4,3.6,8,8,8h14c4.4,0,8-3.6,8-8V8C30,3.6,26.4,0,22,0z M28,22c0,3.309-2.691,6-6,6H8
	c-3.309,0-6-2.691-6-6V8c0-3.309,2.691-6,6-6h14c3.309,0,6,2.691,6,6V22z M9,4C6.238,4,4,6.239,4,9s2.238,5,5,5s5-2.239,5-5
	S11.762,4,9,4z M9,12c-1.657,0-3-1.343-3-3s1.343-3,3-3s3,1.343,3,3S10.657,12,9,12z M21,4c-2.762,0-5,2.239-5,5s2.238,5,5,5
	s5-2.239,5-5S23.762,4,21,4z M21,12c-1.657,0-3-1.343-3-3s1.343-3,3-3s3,1.343,3,3S22.657,12,21,12z M9,16c-2.762,0-5,2.238-5,5
	s2.238,5,5,5s5-2.238,5-5S11.762,16,9,16z M9,24c-1.657,0-3-1.344-3-3s1.343-3,3-3s3,1.344,3,3S10.657,24,9,24z M21,16
	c-2.762,0-5,2.238-5,5s2.238,5,5,5s5-2.238,5-5S23.762,16,21,16z M21,24c-1.657,0-3-1.344-3-3s1.343-3,3-3s3,1.344,3,3
	S22.657,24,21,24z"/>
</svg>
