<?xml version="1.0" encoding="iso-8859-1"?>
<!-- Generator: Adobe Illustrator 14.0.0, SVG Export Plug-In . SVG Version: 6.00 Build 43363)  -->
<!DOCTYPE svg PUBLIC "-//W3C//DTD SVG 1.1//EN" "http://www.w3.org/Graphics/SVG/1.1/DTD/svg11.dtd">
<svg version="1.1" id="Layer_1" xmlns="http://www.w3.org/2000/svg" xmlns:xlink="http://www.w3.org/1999/xlink" x="0px" y="0px"
	 width="30px" height="30px" viewBox="0 0 30 30" style="enable-background:new 0 0 30 30;" xml:space="preserve">
<path style="fill:#fff" d="M24,19c-1.602,0-3.01,0.767-3.926,1.938l-9.268-4.635C10.92,15.885,11,15.454,11,15s-0.08-0.885-0.193-1.303l9.268-4.634
	C20.99,10.233,22.398,11,24,11c2.762,0,5-2.239,5-5s-2.238-5-5-5s-5,2.239-5,5c0,0.454,0.08,0.885,0.193,1.303l-9.268,4.634
	C9.01,10.767,7.602,10,6,10c-2.762,0-5,2.239-5,5c0,2.762,2.238,5,5,5c1.602,0,3.01-0.767,3.926-1.938l9.268,4.635
	C19.08,23.115,19,23.546,19,24c0,2.762,2.238,5,5,5s5-2.238,5-5S26.762,19,24,19z M24,3c1.656,0,3,1.343,3,3s-1.344,3-3,3
	s-3-1.343-3-3S22.344,3,24,3z M6,18c-1.656,0-3-1.344-3-3c0-1.657,1.344-3,3-3s3,1.343,3,3C9,16.656,7.656,18,6,18z M24,27
	c-1.656,0-3-1.344-3-3s1.344-3,3-3s3,1.344,3,3S25.656,27,24,27z"/>
</svg>
