<?xml version="1.0" encoding="iso-8859-1"?>
<!-- Generator: Adobe Illustrator 14.0.0, SVG Export Plug-In . SVG Version: 6.00 Build 43363)  -->
<!DOCTYPE svg PUBLIC "-//W3C//DTD SVG 1.1//EN" "http://www.w3.org/Graphics/SVG/1.1/DTD/svg11.dtd">
<svg version="1.1" id="Layer_1" xmlns="http://www.w3.org/2000/svg" xmlns:xlink="http://www.w3.org/1999/xlink" x="0px" y="0px"
	 width="30px" height="30px" viewBox="0 0 30 30" style="enable-background:new 0 0 30 30;" xml:space="preserve">
<path style="fill:#fff" d="M25,9h-4V7c0-3.313-2.687-6-6-6S9,3.687,9,7v2H5L2,29h26L25,9z M11,7c0-2.209,1.791-4,4-4s4,1.791,4,4v2h-8V7z M6.722,11H9
	v1.277C8.404,12.623,8,13.262,8,14c0,1.104,0.896,2,2,2s2-0.896,2-2c0-0.738-0.405-1.376-1-1.723V11h8v1.277
	c-0.596,0.347-1,0.984-1,1.723c0,1.104,0.896,2,2,2s2-0.896,2-2c0-0.738-0.404-1.376-1-1.723V11h2.277l2.4,16H4.322L6.722,11z"/>
</svg>
