<?xml version="1.0" encoding="iso-8859-1"?>
<!-- Generator: Adobe Illustrator 14.0.0, SVG Export Plug-In . SVG Version: 6.00 Build 43363)  -->
<!DOCTYPE svg PUBLIC "-//W3C//DTD SVG 1.1//EN" "http://www.w3.org/Graphics/SVG/1.1/DTD/svg11.dtd">
<svg version="1.1" id="Layer_1" xmlns="http://www.w3.org/2000/svg" xmlns:xlink="http://www.w3.org/1999/xlink" x="0px" y="0px"
	 width="30px" height="30px" viewBox="0 0 30 30" style="enable-background:new 0 0 30 30;" xml:space="preserve">
<path style="fill:#fff" d="M26,12h-4v2h4V12z M30,26V8h-6V0H6v8H0v18h6v1c0,0.553-0.448,1-1,1v2c1.657,0,3-1.343,3-3v-9h2v10h2V18h2v12h2V18h2v10h2V18
	h2v9c0,1.657,1.344,3,3,3v-2c-0.553,0-1-0.447-1-1v-1H30z M8,2h14v6H8V2z M6,16v8H2V10h26v14h-4v-8H6z"/>
</svg>
