<?xml version="1.0" encoding="iso-8859-1"?>
<!-- Generator: Adobe Illustrator 14.0.0, SVG Export Plug-In . SVG Version: 6.00 Build 43363)  -->
<!DOCTYPE svg PUBLIC "-//W3C//DTD SVG 1.1//EN" "http://www.w3.org/Graphics/SVG/1.1/DTD/svg11.dtd">
<svg version="1.1" id="Layer_1" xmlns="http://www.w3.org/2000/svg" xmlns:xlink="http://www.w3.org/1999/xlink" x="0px" y="0px"
	 width="30px" height="30px" viewBox="0 0 30 30" style="enable-background:new 0 0 30 30;" xml:space="preserve">
<path style="fill:#fff" d="M20.594,18.406L24.188,22H18c-0.117,0-0.229-0.016-0.341-0.034c-0.229,0.655-0.569,1.256-0.997,1.786
	C17.083,23.903,17.529,24,18,24h6.188l-3.594,3.594L22,29l6-6l-6-6L20.594,18.406z M24.188,8l-3.594,3.594L22,13l6-6l-6-6
	l-1.406,1.406L24.188,6H18c-2.2,0-4,1.8-4,4v10c0,1.103-0.897,2-2,2H2v2h10c2.2,0,4-1.8,4-4V10c0-1.103,0.896-2,2-2H24.188z
	 M12.34,8.034c0.229-0.654,0.565-1.258,0.993-1.787C12.914,6.097,12.469,6,12,6H2v2h10C12.116,8,12.229,8.016,12.34,8.034z"/>
</svg>
