<?xml version="1.0" encoding="iso-8859-1"?>
<!-- Generator: Adobe Illustrator 14.0.0, SVG Export Plug-In . SVG Version: 6.00 Build 43363)  -->
<!DOCTYPE svg PUBLIC "-//W3C//DTD SVG 1.1//EN" "http://www.w3.org/Graphics/SVG/1.1/DTD/svg11.dtd">
<svg version="1.1" id="Layer_1" xmlns="http://www.w3.org/2000/svg" xmlns:xlink="http://www.w3.org/1999/xlink" x="0px" y="0px"
	 width="30px" height="30px" viewBox="0 0 30 30" style="enable-background:new 0 0 30 30;" xml:space="preserve">
<path style="fill:#fff" d="M27,1H17l1,15c0,1.657-1.344,3-3,3c-1.657,0-3-1.343-3-3l1-15H3L2,16c0,7.18,5.82,13,13,13s13-5.82,13-13L27,1z M25.129,3
	l0.267,4h-5.993l-0.265-4H25.129z M10.862,3l-0.265,4H4.604l0.267-4H10.862z M15,27C8.956,27,4.035,22.1,4,16.063L4.471,9h5.993
	L10,16c0,2.757,2.243,5,5,5s5-2.243,5-5l-0.465-7h5.994L26,16.063C25.965,22.1,21.044,27,15,27z"/>
</svg>
