<?xml version="1.0" encoding="iso-8859-1"?>
<!-- Generator: Adobe Illustrator 14.0.0, SVG Export Plug-In . SVG Version: 6.00 Build 43363)  -->
<!DOCTYPE svg PUBLIC "-//W3C//DTD SVG 1.1//EN" "http://www.w3.org/Graphics/SVG/1.1/DTD/svg11.dtd">
<svg version="1.1" id="Layer_1" xmlns="http://www.w3.org/2000/svg" xmlns:xlink="http://www.w3.org/1999/xlink" x="0px" y="0px"
	 width="30px" height="30px" viewBox="0 0 30 30" style="enable-background:new 0 0 30 30;" xml:space="preserve">
<path style="fill:#fff" d="M3,1v28h24V1H3z M25,27H5V3h20V27z M15,25c4.418,0,8-3.582,8-8s-3.582-8-8-8s-8,3.582-8,8S10.582,25,15,25z M15,11
	c3.313,0,6,2.687,6,6s-2.687,6-6,6s-6-2.687-6-6S11.687,11,15,11z M15,21c2.209,0,4-1.791,4-4s-1.791-4-4-4s-4,1.791-4,4
	S12.791,21,15,21z M15,15c1.104,0,2,0.896,2,2s-0.896,2-2,2s-2-0.896-2-2S13.896,15,15,15z M17,5h-4v2h4V5z"/>
</svg>
