<?xml version="1.0" encoding="iso-8859-1"?>
<!-- Generator: Adobe Illustrator 14.0.0, SVG Export Plug-In . SVG Version: 6.00 Build 43363)  -->
<!DOCTYPE svg PUBLIC "-//W3C//DTD SVG 1.1//EN" "http://www.w3.org/Graphics/SVG/1.1/DTD/svg11.dtd">
<svg version="1.1" id="Layer_1" xmlns="http://www.w3.org/2000/svg" xmlns:xlink="http://www.w3.org/1999/xlink" x="0px" y="0px"
	 width="30px" height="30px" viewBox="0 0 30 30" style="enable-background:new 0 0 30 30;" xml:space="preserve">
<path style="fill:#fff" d="M15,0c-1.104,0-2,0.896-2,2s0.896,2,2,2s2-0.896,2-2S16.104,0,15,0z M15,26c-1.104,0-2,0.896-2,2s0.896,2,2,2
	c1.104-0.002,2-0.896,2-2S16.104,26,15,26z M20.5,24.526c-0.956,0.553-1.284,1.775-0.732,2.731c0.553,0.957,1.775,1.284,2.732,0.732
	c0.956-0.553,1.284-1.775,0.731-2.732C22.68,24.302,21.456,23.975,20.5,24.526z M27.258,19.768c-0.956-0.552-2.18-0.224-2.731,0.732
	c-0.552,0.957-0.225,2.18,0.731,2.732c0.957,0.552,2.18,0.224,2.732-0.732C28.542,21.543,28.215,20.32,27.258,19.768z M27.999,13
	C26.896,13,26,13.896,26,15c0.001,1.104,0.896,2,1.999,2c1.105,0,2-0.896,2.001-2C29.999,13.895,29.104,13,27.999,13z
	 M27.258,10.232C28.215,9.68,28.542,8.457,27.99,7.5c-0.553-0.957-1.775-1.284-2.732-0.731C24.302,7.32,23.975,8.544,24.526,9.5
	C25.079,10.456,26.302,10.784,27.258,10.232z M22.5,2.01c-0.957-0.552-2.18-0.225-2.732,0.732c-0.552,0.956-0.224,2.179,0.732,2.731
	c0.956,0.551,2.18,0.225,2.731-0.731C23.784,3.785,23.456,2.563,22.5,2.01z M9.5,24.526c-0.956-0.552-2.18-0.225-2.731,0.731
	c-0.553,0.957-0.225,2.18,0.731,2.732c0.957,0.552,2.18,0.225,2.732-0.732C10.784,26.302,10.456,25.079,9.5,24.526z M2.742,19.768
	C1.785,20.32,1.458,21.543,2.01,22.5c0.553,0.956,1.775,1.284,2.732,0.732c0.956-0.553,1.283-1.775,0.731-2.732
	C4.922,19.544,3.698,19.216,2.742,19.768z M4,15c0-1.104-0.896-2-1.999-2c-1.105,0-2,0.895-2.001,2c0.001,1.104,0.896,2,2.001,2
	C3.104,17,3.999,16.104,4,15z M4.742,6.769C3.785,6.216,2.563,6.543,2.01,7.5c-0.552,0.957-0.225,2.18,0.732,2.732
	c0.956,0.552,2.179,0.223,2.731-0.732C6.025,8.544,5.698,7.32,4.742,6.769z M7.5,2.01C6.544,2.563,6.216,3.785,6.769,4.742
	C7.32,5.698,8.544,6.025,9.5,5.474c0.956-0.552,1.284-1.775,0.732-2.731C9.68,1.785,8.457,1.458,7.5,2.01z"/>
</svg>
