<?xml version="1.0" encoding="iso-8859-1"?>
<!-- Generator: Adobe Illustrator 14.0.0, SVG Export Plug-In . SVG Version: 6.00 Build 43363)  -->
<!DOCTYPE svg PUBLIC "-//W3C//DTD SVG 1.1//EN" "http://www.w3.org/Graphics/SVG/1.1/DTD/svg11.dtd">
<svg version="1.1" id="Layer_1" xmlns="http://www.w3.org/2000/svg" xmlns:xlink="http://www.w3.org/1999/xlink" x="0px" y="0px"
	 width="30px" height="30px" viewBox="0 0 30 30" style="enable-background:new 0 0 30 30;" xml:space="preserve">
<path style="fill:#fff" d="M24.859,8.541L27,6.4L25.6,5l-2.141,2.141C21.422,5.392,18.84,4.268,16,4.051V2h2V0h-6v2h2v2.051C7.289,4.563,2,10.158,2,17
	c0,7.18,5.82,13,13,13s13-5.82,13-13C28,13.767,26.813,10.815,24.859,8.541z M15,28C8.925,28,4,23.075,4,17S8.925,6,15,6
	s11,4.925,11,11S21.075,28,15,28z M16,15.277V8h-2v7.277c-0.595,0.347-1,0.984-1,1.723s0.405,1.376,1,1.723V21h2v-2.277
	c0.596-0.347,1-0.984,1-1.723S16.596,15.624,16,15.277z"/>
</svg>
