<?xml version="1.0" encoding="iso-8859-1"?>
<!-- Generator: Adobe Illustrator 14.0.0, SVG Export Plug-In . SVG Version: 6.00 Build 43363)  -->
<!DOCTYPE svg PUBLIC "-//W3C//DTD SVG 1.1//EN" "http://www.w3.org/Graphics/SVG/1.1/DTD/svg11.dtd">
<svg version="1.1" id="Layer_1" xmlns="http://www.w3.org/2000/svg" xmlns:xlink="http://www.w3.org/1999/xlink" x="0px" y="0px"
	 width="30px" height="30px" viewBox="0 0 30 30" style="enable-background:new 0 0 30 30;" xml:space="preserve">
<path style="fill:#fff" d="M14.7,2H2v12.7L15.3,28L28,15.3L14.7,2z M4,13.872V4h9.871l11.301,11.3L15.3,25.172L4,13.872z M10,6c-2.209,0-4,1.791-4,4
	s1.791,4,4,4s4-1.791,4-4S12.209,6,10,6z M10,12c-1.104,0-2-0.896-2-2s0.896-2,2-2s2,0.896,2,2S11.104,12,10,12z"/>
</svg>
