<?xml version="1.0" encoding="iso-8859-1"?>
<!-- Generator: Adobe Illustrator 14.0.0, SVG Export Plug-In . SVG Version: 6.00 Build 43363)  -->
<!DOCTYPE svg PUBLIC "-//W3C//DTD SVG 1.1//EN" "http://www.w3.org/Graphics/SVG/1.1/DTD/svg11.dtd">
<svg version="1.1" id="Layer_1" xmlns="http://www.w3.org/2000/svg" xmlns:xlink="http://www.w3.org/1999/xlink" x="0px" y="0px"
	 width="30px" height="30px" viewBox="0 0 30 30" style="enable-background:new 0 0 30 30;" xml:space="preserve">
<path style="fill:#fff" d="M15,0C6.716,0,0,6.716,0,15s6.716,15,15,15s15-6.716,15-15S23.284,0,15,0z M15,28C7.82,28,2,22.18,2,15S7.82,2,15,2
	s13,5.82,13,13S22.18,28,15,28z M15,5C9.477,5,5,9.477,5,15c0,5.523,4.477,10,10,10c5.523,0,10-4.477,10-10C25,9.477,20.523,5,15,5z
	 M15,23c-4.418,0-8-3.582-8-8c0-4.418,3.582-8,8-8c4.418,0,8,3.582,8,8C23,19.418,19.418,23,15,23z M15,10c-2.761,0-5,2.239-5,5
	c0,2.762,2.239,5,5,5c2.762,0,5-2.238,5-5C20,12.239,17.762,10,15,10z M15,18c-1.657,0-3-1.344-3-3c0-1.657,1.343-3,3-3
	c1.656,0,3,1.343,3,3C18,16.656,16.656,18,15,18z"/>
</svg>
