<?xml version="1.0" encoding="iso-8859-1"?>
<!-- Generator: Adobe Illustrator 14.0.0, SVG Export Plug-In . SVG Version: 6.00 Build 43363)  -->
<!DOCTYPE svg PUBLIC "-//W3C//DTD SVG 1.1//EN" "http://www.w3.org/Graphics/SVG/1.1/DTD/svg11.dtd">
<svg version="1.1" id="Layer_1" xmlns="http://www.w3.org/2000/svg" xmlns:xlink="http://www.w3.org/1999/xlink" x="0px" y="0px"
	 width="30px" height="30px" viewBox="0 0 30 30" style="enable-background:new 0 0 30 30;" xml:space="preserve">
<path style="fill:#fff" d="M18,15h-2V9h-6v6H6v6h6v-6h2v6h6v-6h4V9h-6V15z M10,19H8v-2h2V19z M14,13h-2v-2h2V13z M18,19h-2v-2h2V19z M20,11h2v2h-2V11z
	 M28,7c0-1.104-5.82-2-13-2S2,5.896,2,7L1,25h28L28,7z M3.114,23L3.947,8.015C5.373,7.581,9.218,7,15,7s9.627,0.581,11.053,1.015
	L26.886,23H3.114z"/>
</svg>
