<?xml version="1.0" encoding="iso-8859-1"?>
<!-- Generator: Adobe Illustrator 14.0.0, SVG Export Plug-In . SVG Version: 6.00 Build 43363)  -->
<!DOCTYPE svg PUBLIC "-//W3C//DTD SVG 1.1//EN" "http://www.w3.org/Graphics/SVG/1.1/DTD/svg11.dtd">
<svg version="1.1" id="Layer_1" xmlns="http://www.w3.org/2000/svg" xmlns:xlink="http://www.w3.org/1999/xlink" x="0px" y="0px"
	 width="30px" height="30px" viewBox="0 0 30 30" style="enable-background:new 0 0 30 30;" xml:space="preserve">
<path style="fill:#fff" d="M20,15.761V5c0-2.762-2.238-5-5-5s-5,2.238-5,5v10.761C8.173,17.227,7,19.475,7,22c0,4.418,3.582,8,8,8s8-3.582,8-8
	C23,19.475,21.827,17.227,20,15.761z M12,16.721V14h2v-2h-2v-2h2V8h-2V6h2V4h-1.815C12.599,2.839,13.698,2,15,2c1.654,0,3,1.346,3,3
	v11.721c0.301,0.215,0.875,0.642,1.443,1.279h-8.887C11.125,17.362,11.699,16.936,12,16.721z M15,28c-3.309,0-6-2.691-6-6
	c0-0.753,0.137-1.415,0.348-2h11.305C20.863,20.585,21,21.247,21,22C21,25.309,18.309,28,15,28z"/>
</svg>
