<?xml version="1.0" encoding="iso-8859-1"?>
<!-- Generator: Adobe Illustrator 14.0.0, SVG Export Plug-In . SVG Version: 6.00 Build 43363)  -->
<!DOCTYPE svg PUBLIC "-//W3C//DTD SVG 1.1//EN" "http://www.w3.org/Graphics/SVG/1.1/DTD/svg11.dtd">
<svg version="1.1" id="Layer_1" xmlns="http://www.w3.org/2000/svg" xmlns:xlink="http://www.w3.org/1999/xlink" x="0px" y="0px"
	 width="30px" height="30px" viewBox="0 0 30 30" style="enable-background:new 0 0 30 30;" xml:space="preserve">
<path style="fill:#fff" d="M15,0C6.716,0,0,6.716,0,15s6.716,15,15,15s15-6.716,15-15S23.284,0,15,0z M22.605,4.472C20.771,6.626,18.05,8,15,8
	S9.229,6.626,7.395,4.472C9.535,2.924,12.156,2,15,2S20.465,2.924,22.605,4.472z M7.395,25.528C9.229,23.374,11.95,22,15,22
	s5.771,1.374,7.605,3.528C20.465,27.076,17.844,28,15,28S9.535,27.076,7.395,25.528z M24.127,24.252C21.928,21.66,18.666,20,15,20
	s-6.928,1.66-9.127,4.252C3.483,21.895,2,18.621,2,15s1.483-6.895,3.873-9.252C8.072,8.34,11.334,10,15,10s6.928-1.66,9.127-4.252
	C26.517,8.105,28,11.379,28,15S26.517,21.895,24.127,24.252z"/>
</svg>
