<?xml version="1.0" encoding="iso-8859-1"?>
<!-- Generator: Adobe Illustrator 14.0.0, SVG Export Plug-In . SVG Version: 6.00 Build 43363)  -->
<!DOCTYPE svg PUBLIC "-//W3C//DTD SVG 1.1//EN" "http://www.w3.org/Graphics/SVG/1.1/DTD/svg11.dtd">
<svg version="1.1" id="Layer_1" xmlns="http://www.w3.org/2000/svg" xmlns:xlink="http://www.w3.org/1999/xlink" x="0px" y="0px"
	 width="30px" height="30px" viewBox="0 0 30 30" style="enable-background:new 0 0 30 30;" xml:space="preserve">
<path style="fill:#fff" d="M26,4H4c0,2.209-1.791,4-4,4v14c2.209,0,4,1.791,4,4h22c0-2.209,1.791-4,4-4V8C27.791,8,26,6.209,26,4z M28,20.343
	c-1.702,0.604-3.054,1.955-3.657,3.657H5.657C5.054,22.298,3.702,20.946,2,20.343V9.657C3.702,9.054,5.054,7.702,5.657,6h18.686
	C24.946,7.702,26.298,9.054,28,9.657V20.343z M15.156,12.672L13,8l-2.156,4.672L6,13.594l3.531,3.281L8.344,22L13,19.438L17.656,22
	l-1.188-5.125L20,13.594L15.156,12.672z M14.697,18.089L13,17.154l-1.697,0.935l0.438-1.891l-1.484-1.379l1.971-0.375L13,12.772
	l0.771,1.672l1.971,0.375l-1.484,1.379L14.697,18.089z M22,22h2V8h-2V22z"/>
</svg>
