<?xml version="1.0" encoding="iso-8859-1"?>
<!-- Generator: Adobe Illustrator 14.0.0, SVG Export Plug-In . SVG Version: 6.00 Build 43363)  -->
<!DOCTYPE svg PUBLIC "-//W3C//DTD SVG 1.1//EN" "http://www.w3.org/Graphics/SVG/1.1/DTD/svg11.dtd">
<svg version="1.1" id="Layer_1" xmlns="http://www.w3.org/2000/svg" xmlns:xlink="http://www.w3.org/1999/xlink" x="0px" y="0px"
	 width="30px" height="30px" viewBox="0 0 30 30" style="enable-background:new 0 0 30 30;" xml:space="preserve">
<path style="fill:#fff" d="M23,7V3H7v4H0v20h30V7H23z M9,5h12v2H9V5z M28,9v6h-2c0-1.656-1.343-3-3-3s-3,1.344-3,3H10c0-1.656-1.343-3-3-3
	s-3,1.344-3,3H2V9H28z M24,15v2c0,0.551-0.448,1-1,1s-1-0.449-1-1v-2c0-0.551,0.448-1,1-1S24,14.449,24,15z M8,15v2
	c0,0.551-0.448,1-1,1s-1-0.449-1-1v-2c0-0.551,0.448-1,1-1S8,14.449,8,15z M2,25v-8h2c0,1.656,1.343,3,3,3s3-1.344,3-3h10
	c0,1.656,1.343,3,3,3s3-1.344,3-3h2v8H2z"/>
</svg>
