<?xml version="1.0" encoding="iso-8859-1"?>
<!-- Generator: Adobe Illustrator 14.0.0, SVG Export Plug-In . SVG Version: 6.00 Build 43363)  -->
<!DOCTYPE svg PUBLIC "-//W3C//DTD SVG 1.1//EN" "http://www.w3.org/Graphics/SVG/1.1/DTD/svg11.dtd">
<svg version="1.1" id="Layer_1" xmlns="http://www.w3.org/2000/svg" xmlns:xlink="http://www.w3.org/1999/xlink" x="0px" y="0px"
	 width="30px" height="30px" viewBox="0 0 30 30" style="enable-background:new 0 0 30 30;" xml:space="preserve">
<path style="fill:#fff" d="M15,9c-1.656,0-3,1.344-3,3v2h-2v7h10v-7h-2v-2C18,10.344,16.656,9,15,9z M14,12c0-0.553,0.447-1,1-1s1,0.447,1,1v2h-2V12z
	 M18,19h-6v-3h6V19z M27,15c0,6.627-5.373,12-12,12S3,21.627,3,15S8.373,3,15,3c4.438,0,8.3,2.417,10.375,6H20v2h8V3h-2v3.36
	C23.438,3.101,19.469,1,15,1C7.268,1,1,7.268,1,15s6.268,14,14,14s14-6.268,14-14H27z"/>
</svg>
