<?xml version="1.0" encoding="iso-8859-1"?>
<!-- Generator: Adobe Illustrator 14.0.0, SVG Export Plug-In . SVG Version: 6.00 Build 43363)  -->
<!DOCTYPE svg PUBLIC "-//W3C//DTD SVG 1.1//EN" "http://www.w3.org/Graphics/SVG/1.1/DTD/svg11.dtd">
<svg version="1.1" id="Layer_1" xmlns="http://www.w3.org/2000/svg" xmlns:xlink="http://www.w3.org/1999/xlink" x="0px" y="0px"
	 width="30px" height="30px" viewBox="0 0 30 30" style="enable-background:new 0 0 30 30;" xml:space="preserve">
<path style="fill:#fff" d="M26.6,2l-4.215,4.214C19.976,4.883,17.337,4,15,4C8.641,4,0,10.469,0,15c0,2.455,2.542,5.469,5.878,7.723L2,26.6L3.4,28
	L28,3.4L26.6,2z M10.837,17.764C10.31,16.971,10,16.022,10,15c0-2.761,2.238-5,5-5c1.022,0,1.972,0.31,2.764,0.836L10.837,17.764z
	 M19.194,9.405C18.025,8.526,16.576,8,15,8c-3.866,0-7,3.134-7,7c0,1.576,0.526,3.025,1.405,4.195l-2.106,2.105
	C4.272,19.313,2,16.676,2,15c0-2.975,7.149-9,13-9c1.94,0,4.021,0.667,5.938,1.662L19.194,9.405z M15,20
	c-0.24,0-0.47-0.038-0.701-0.07l-1.655,1.655C13.381,21.849,14.172,22,15,22c3.866,0,7-3.134,7-7c0-0.828-0.151-1.619-0.415-2.357
	l-1.655,1.656C19.962,14.53,20,14.76,20,15C20,17.762,17.762,20,15,20z M25.746,8.481l-1.411,1.412C26.506,11.657,28,13.644,28,15
	c0,2.975-7.149,9-13,9c-1.293,0-2.647-0.306-3.976-0.797l-1.513,1.514C11.364,25.508,13.266,26,15,26c6.359,0,15-6.469,15-11
	C30,12.963,28.247,10.538,25.746,8.481z"/>
</svg>
