<?xml version="1.0" encoding="iso-8859-1"?>
<!-- Generator: Adobe Illustrator 14.0.0, SVG Export Plug-In . SVG Version: 6.00 Build 43363)  -->
<!DOCTYPE svg PUBLIC "-//W3C//DTD SVG 1.1//EN" "http://www.w3.org/Graphics/SVG/1.1/DTD/svg11.dtd">
<svg version="1.1" id="Layer_1" xmlns="http://www.w3.org/2000/svg" xmlns:xlink="http://www.w3.org/1999/xlink" x="0px" y="0px"
	 width="30px" height="30px" viewBox="0 0 30 30" style="enable-background:new 0 0 30 30;" xml:space="preserve">
<path style="fill:#fff" d="M23,8c-3.866,0-7,3.134-7,7c0,1.96,0.808,3.729,2.105,5h-6.211C13.192,18.729,14,16.96,14,15c0-3.866-3.134-7-7-7
	s-7,3.134-7,7s3.134,7,7,7h16c3.866,0,7-3.134,7-7S26.866,8,23,8z M2,15c0-2.761,2.238-5,5-5s5,2.239,5,5c0,2.762-2.238,5-5,5
	S2,17.762,2,15z M23,20c-2.762,0-5-2.238-5-5c0-2.761,2.238-5,5-5s5,2.239,5,5C28,17.762,25.762,20,23,20z"/>
</svg>
