<?xml version="1.0" encoding="iso-8859-1"?>
<!-- Generator: Adobe Illustrator 14.0.0, SVG Export Plug-In . SVG Version: 6.00 Build 43363)  -->
<!DOCTYPE svg PUBLIC "-//W3C//DTD SVG 1.1//EN" "http://www.w3.org/Graphics/SVG/1.1/DTD/svg11.dtd">
<svg version="1.1" id="Layer_1" xmlns="http://www.w3.org/2000/svg" xmlns:xlink="http://www.w3.org/1999/xlink" x="0px" y="0px"
	 width="30px" height="30px" viewBox="0 0 30 30" style="enable-background:new 0 0 30 30;" xml:space="preserve">
<path style="fill:#fff" d="M26,9V3H6C3.791,3,2,4.791,2,7v16c0,2.209,1.791,4,4,4h22V9H26z M6,5h18v4H6C4.896,9,4,8.104,4,7S4.896,5,6,5z M26,25H6
	c-1.103,0-2-0.897-2-2V10.463C4.589,10.805,5.272,11,6,11h20V25z M22,20c1.104,0,2-0.896,2-2s-0.896-2-2-2s-2,0.896-2,2
	S20.896,20,22,20z"/>
</svg>
