<?xml version="1.0" encoding="iso-8859-1"?>
<!-- Generator: Adobe Illustrator 14.0.0, SVG Export Plug-In . SVG Version: 6.00 Build 43363)  -->
<!DOCTYPE svg PUBLIC "-//W3C//DTD SVG 1.1//EN" "http://www.w3.org/Graphics/SVG/1.1/DTD/svg11.dtd">
<svg version="1.1" id="Layer_1" xmlns="http://www.w3.org/2000/svg" xmlns:xlink="http://www.w3.org/1999/xlink" x="0px" y="0px"
	 width="30px" height="30px" viewBox="0 0 30 30" style="enable-background:new 0 0 30 30;" xml:space="preserve">
<path style="fill:#fff" d="M8,18c0,3.866,3.134,7,7,7s7-3.134,7-7s-3.134-7-7-7S8,14.134,8,18z M15,23c-2.421,0-4.439-1.721-4.9-4.007
	c0.857-0.017,1.68-0.247,2.4-0.663C13.248,18.763,14.107,19,15,19s1.752-0.237,2.5-0.67c0.72,0.416,1.543,0.646,2.4,0.663
	C19.439,21.279,17.421,23,15,23z M19.896,16.986c-1-0.034-1.878-0.549-2.396-1.332C16.963,16.465,16.045,17,15,17
	s-1.963-0.535-2.5-1.346c-0.519,0.783-1.396,1.298-2.397,1.332C10.572,14.711,12.586,13,15,13S19.428,14.711,19.896,16.986z M2,1v28
	h26V1H2z M26,27H4V11.389C6.817,10.584,10.533,10,15,10c4.467,0,8.184,0.584,11,1.389V27z M26,9.299C22.895,8.484,19.104,8,15,8
	S7.105,8.484,4,9.299V3h22V9.299z M12,5H6v2h6V5z"/>
</svg>
