<?xml version="1.0" encoding="iso-8859-1"?>
<!-- Generator: Adobe Illustrator 14.0.0, SVG Export Plug-In . SVG Version: 6.00 Build 43363)  -->
<!DOCTYPE svg PUBLIC "-//W3C//DTD SVG 1.1//EN" "http://www.w3.org/Graphics/SVG/1.1/DTD/svg11.dtd">
<svg version="1.1" id="Layer_1" xmlns="http://www.w3.org/2000/svg" xmlns:xlink="http://www.w3.org/1999/xlink" x="0px" y="0px"
	 width="30px" height="30px" viewBox="0 0 30 30" style="enable-background:new 0 0 30 30;" xml:space="preserve">
<path style="fill:#fff" d="M15,6c-3.866,0-7,3.134-7,7s3.134,7,7,7s7-3.134,7-7S18.866,6,15,6z M15,18c-2.762,0-5-2.238-5-5s2.238-5,5-5s5,2.238,5,5
	S17.762,18,15,18z M15,11c-1.104,0-2,0.896-2,2s0.896,2,2,2s2-0.896,2-2S16.104,11,15,11z M28,13c0-7.18-5.82-13-13-13S2,5.82,2,13
	c0,4.043,1.846,7.654,4.74,10.039L5,30h20l-1.74-6.961C26.154,20.654,28,17.043,28,13z M7.562,28L8.5,24.246
	C10.414,25.355,12.629,26,15,26s4.586-0.645,6.5-1.754L22.438,28H7.562z M15,24C8.925,24,4,19.075,4,13S8.925,2,15,2s11,4.925,11,11
	S21.075,24,15,24z"/>
</svg>
