<?xml version="1.0" encoding="iso-8859-1"?>
<!-- Generator: Adobe Illustrator 14.0.0, SVG Export Plug-In . SVG Version: 6.00 Build 43363)  -->
<!DOCTYPE svg PUBLIC "-//W3C//DTD SVG 1.1//EN" "http://www.w3.org/Graphics/SVG/1.1/DTD/svg11.dtd">
<svg version="1.1" id="Layer_1" xmlns="http://www.w3.org/2000/svg" xmlns:xlink="http://www.w3.org/1999/xlink" x="0px" y="0px"
	 width="30px" height="30px" viewBox="0 0 30 30" style="enable-background:new 0 0 30 30;" xml:space="preserve">
<path style="fill:#fff" d="M23,2c-1.141,0-2.55,0.45-3.55,1.45L3,19.9L2,28l8.1-1l16.45-16.449C27.604,9.495,28,8.063,28,7C28,4.238,25.762,2,23,2z
	 M8.9,22.5L22.5,8.9l1.436,1.436l-13.6,13.6L8.9,22.5z M7.5,21.1l-1.436-1.436l13.6-13.6L21.1,7.5L7.5,21.1z M4.849,21.248
	l3.902,3.903l-4.452,0.55L4.849,21.248z M25.311,8.91L21.09,4.689C21.705,4.198,22.478,4,23,4c1.654,0,3,1.346,3,3
	C26,7.523,25.802,8.295,25.311,8.91z"/>
</svg>
