<?xml version="1.0" encoding="iso-8859-1"?>
<!-- Generator: Adobe Illustrator 14.0.0, SVG Export Plug-In . SVG Version: 6.00 Build 43363)  -->
<!DOCTYPE svg PUBLIC "-//W3C//DTD SVG 1.1//EN" "http://www.w3.org/Graphics/SVG/1.1/DTD/svg11.dtd">
<svg version="1.1" id="Layer_1" xmlns="http://www.w3.org/2000/svg" xmlns:xlink="http://www.w3.org/1999/xlink" x="0px" y="0px"
	 width="30px" height="30px" viewBox="0 0 30 30" style="enable-background:new 0 0 30 30;" xml:space="preserve">
<path style="fill:#fff" d="M19.735,18.336C21.15,16.61,22,14.405,22,12c0-5.523-4.478-10-10-10S2,6.477,2,12c0,5.523,4.478,10,10,10
	c2.404,0,4.61-0.85,6.336-2.265L26.6,28l1.4-1.4L19.735,18.336z M12,20c-4.418,0-8-3.582-8-8c0-4.418,3.582-8,8-8s8,3.582,8,8
	C20,16.418,16.418,20,12,20z M6,11v2h12v-2H6z"/>
</svg>
